<?xml version="1.0" encoding="utf-8"?>
<!-- Generator: Adobe Illustrator 24.2.1, SVG Export Plug-In . SVG Version: 6.00 Build 0)  -->
<svg version="1.1" id="Layer_1" xmlns="http://www.w3.org/2000/svg" xmlns:xlink="http://www.w3.org/1999/xlink" x="0px" y="0px"
	 viewBox="0 0 1080 1080" style="enable-background:new 0 0 1080 1080;" xml:space="preserve">
<style type="text/css">
	.st0{enable-background:new    ;}
	.st1{fill:#BE1E2D;}
	.st2{fill:#F7941D;}
</style>
<g class="st0">
	<path class="st1" d="M138.6,496.3H88.8v-20.6h67L138.6,496.3z M95.5,499.8h13.8v67.7l-6.6,6.6H89v-67.8L95.5,499.8z M169.9,475.8
		v20.6L137,535.3h-24.2v-20.6h14.8l32.7-38.9L169.9,475.8L169.9,475.8z"/>
	<path class="st1" d="M227.1,496.3h-49.8v-20.6h67L227.1,496.3z M184.1,499.8h13.8v67.7l-6.6,6.6h-13.7v-67.8L184.1,499.8z
		 M262.4,561.8v12.3h-21l-17.1-20.3h4.5l-15.6-18.6h-12v-20.6H216l32.7-38.9h9.5v20.6l-25.6,30.3L262.4,561.8z"/>
	<path class="st1" d="M344.7,482.4v14h-41.4L287.7,515v35.3h-13.8l-6.5-6.6v-36.4l26.3-31.4h44.5L344.7,482.4z M338.2,500.1l6.5,6.6
		V543l-26.4,31.4h-44.4l-6.5-6.5v-14.1h41.4l15.6-18.5V500L338.2,500.1L338.2,500.1z"/>
</g>
<g class="st0">
	<path class="st1" d="M357.9,475.8h22.8v20.6h-28.6v-13.7L357.9,475.8z M433,475.8v7.9l-10.7,12.7h-17.8c0,21.9,0,43.8,0,65.6
		l-20.3,12.2c0-32.8,0-65.6,0-98.4L433,475.8L433,475.8z"/>
</g>
<g class="st0">
	<path class="st1" d="M503.1,482.4v14h-41.4L446.1,515v35.3h-13.8l-6.5-6.6v-36.4l26.3-31.4h44.5L503.1,482.4z M496.6,500.1l6.5,6.6
		V543l-26.4,31.4h-44.4l-6.5-6.5v-14.1h41.4l15.6-18.5V500L496.6,500.1L496.6,500.1z"/>
	<path class="st1" d="M589.1,475.8v92.4l-5.1,6h-26.7l11.5-13.7v-35.9l-22.7,26.8h4.5l-19.1,22.8c-7,0-14,0-21,0v-12.3l72.3-86
		L589.1,475.8L589.1,475.8z M516.3,549.7l-5.7-5.7v-61.6l6.5-6.6H544v14.1l-6.6,6.5h-6.2v35.8L516.3,549.7z"/>
</g>
<g class="st0">
	<path class="st2" d="M681.6,561.8v12.3h-21l-17.1-20.3h4.5l-15.6-18.6h-21.1l-14.8-17.6v-24.2l14.8-17.7h40.4l-17,20.6
		c-7.7,0-10.1,0-17.7,0c0,6.1,0,12.2,0,18.3h25L681.6,561.8z M639,553.6l17.2,20.6c-17.7,0-35.4,0-53,0l-6.6-6.6c0-9,0-18,0-26.9
		c8.9,0,17.5,0,26.3,0l-6,7c0,2,0,4,0,6h15.6L639,553.6L639,553.6z M639.2,496.3l17.1-20.6h12.2l6.6,6.6c0,10.7,0,16.2,0,27.1
		c-8.9,0-17.5,0-26.3,0l6-7.1c0-3.7,0-2.2,0-6H639.2z"/>
</g>
<g class="st0">
	<path class="st2" d="M738.9,496.3h-49.8v-20.6h67L738.9,496.3z M695.9,499.8h13.8v67.7l-6.6,6.6h-13.7v-67.8L695.9,499.8z
		 M770.2,475.8v20.6l-32.9,38.9h-24.2v-20.6h14.8l32.7-38.9L770.2,475.8L770.2,475.8z"/>
	<path class="st2" d="M875.9,474.4v9.6L837,516.7v9.9l-4,4L777.7,484v-9.6h20.5l28.7,24.1l28.7-24.1H875.9z M816.6,521.1l20.5,17.2
		v22.1l-20.5,12.3V521.1z"/>
</g>
<g id="Q0lhBc">
	<path class="st1" d="M871.6,506.5c-1.2-1-1.5-2.4-2.6-3.5c-9.2,5.1-17.6,11.6-25,19.2c0.2,0.6,0.5,0.6,0.7,0.6
		c6.4-0.2,11.1,3,14.9,7.8c3.9,5,6.5,10.7,9,16.4c3.4,7.9,6.4,16,10.3,23.8c3.5,7,7.5,13.6,13.4,18.9c0.9,0.9,1.8,1.6,2.9,2.2
		c0.9-0.5,0.8-1.5,1-2.2c2.9-13.4,9.5-25.8,19.1-35.7c-8.9-5.5-16.9-12.3-23.7-20.2c2.3,1.9,4.6,3.8,6.9,5.7
		c5.6,4.6,11.6,8.7,17.9,12.2c0.9,0.5,1.4,1.5,1.4,2.5c0.8,10.5,1.6,21,2.5,31.4c0.1,1.1-0.5,2.8,1.4,3.1c2.2,0.4,4.4,0.9,6.1-1.2
		c0.6-0.8,1.1-1.8,1.4-2.7c1.9-5.2,5.2-9.8,9.5-13.4c1.5-1.2,2.2-2.4,1.9-4.3c-0.1-0.6-0.1-1.3,0.2-1.9c1.3-0.8,2.7-1.4,4.1-1.8
		c1.2-0.3,2-1.4,2-2.6c0.1-1.5,0.4-3,0.7-4.4c1-0.3,2.1-0.4,3.2-0.2c2.1,0,4.2-0.3,6.3-1c0.9-0.1,1.5-1,1.4-1.9c0-0.1,0-0.2-0.1-0.3
		c-0.8-6.3-0.5-12.8,0.8-19c0-0.7,0.3-1.3,0.7-1.8c0.8-0.2,1.3,0.3,1.9,0.6c7,3.6,14.3,6.6,21.9,8.9c2.4,0.7,4.9,1.1,7.4,1.1
		c3.4-0.1,4.7-2,3.6-5.2c-1.3-3.8-3.8-6.9-6.3-10c-3.3-4-6.8-7.8-10.5-11.4c-1.4-1.2-3-2.1-4.7-2.7c-5.4-2.1-10.5-5-15.1-8.6
		c-0.3-0.3-0.9-0.5-0.9-1.2c1.6,0.8,3.1,1.6,4.6,2.4c2.9,1.6,6,2.9,9.2,4c1.2,0.4,2.3,0.7,3.5,0.9c2.9,0.5,3,0.4,3.8-2.4
		c1.6-5.4,3-10.9,4-16.5c0.9-4.6,1.4-9.3,1.4-14c0.1-1.2-0.5-2.4-1.5-3c-8.9-6.3-18.7-11.4-29-14.9l-7.3-2.5
		c2.8-0.4,5.3,0.4,7.9,0.5c0-0.8-0.5-0.9-0.9-1.1c-5.2-3.8-11-6.2-16.8-8.6c-2.5-1-5.1-1.9-7.6-3c-0.9-0.4-1.9-0.3-2.7,0.2
		c-7.5,4.3-14.6,9.2-21.4,14.6l-4.3,3.2c-1.8-1-3.5-2-5.3-2.9c-5.6-2.9-11.2-5.6-17.3-7.1c-1.3-0.4-2.7-0.5-4-0.4
		c-2.2,0.2-3.2,1.4-2.7,3.6c0.4,1.7,1.2,3.3,2.2,4.8c5.1,7.6,11.1,14.7,17.7,21c5.5,5.4,11.3,10.5,17.3,15.4
		c0.3,0.2,0.6,0.6,0.8,0.9c-7.5-4.5-14.5-9.7-21.1-15.5C881.3,490.3,876,498.1,871.6,506.5z M944.5,551.2c2.5,0.5,5.1,0.6,7.6,0.2
		c0.8,0,1.5-0.7,1.5-1.5c0-0.1,0-0.2,0-0.3c-0.1-2.2,0-4.3,0.4-6.5c0.1-1.8,0.6-3.5,1.4-5.1c-0.5,5-0.2,9.9,0.7,14.8
		c-3.6,1.6-7.2,1.1-11,1.2c-0.2,1.9-0.4,3.7-0.6,5.5c-0.1,0.7,0,1.5-0.9,1.8c-1.4,0.5-2.9,0.8-4.4,1c4.2-7.8,3-15.7,1.3-23.6
		C942.6,542.5,944,546.8,944.5,551.2z M933.2,520.2l0.5-0.4l16.5,16c-2.9,0.9-5.4,1.4-8.1,0.3c3,0.3,3.1,0.3,4.8-0.5
		C938.3,533.6,932.8,529.3,933.2,520.2L933.2,520.2z M923.6,586.1c3.1-4.8,6.2-9.3,5.2-15.4c1.7-0.1,3.4,0.5,4.7,1.6
		c-2.7,2.2-3.8,5.3-5.2,8.3c-0.5,1.3-1.1,2.6-1.9,3.7C925.8,585.4,924.7,586.1,923.6,586.1L923.6,586.1z M938,568.8
		c-1.9-1.1-3.8-2-5.9-2.8c-2.1-0.6-4.2-1.1-6.4-1.5c1-0.2,2.1-0.3,3.1-0.2c2.2,0,4.5,0.3,6.7,0.8C938.2,565.7,938.2,565.7,938,568.8
		z M952.5,531.5h0.2c-0.4,0.9-0.5,1.9-0.3,2.9c-0.7-0.3-1.2-0.9-1.4-1.6C951.3,532.2,951.8,531.8,952.5,531.5L952.5,531.5z"/>
</g>
</svg>
