<svg width="349" height="349" viewBox="0 0 349 349" fill="none" xmlns="http://www.w3.org/2000/svg">
<circle cx="174.5" cy="174.5" r="174.5" fill="#C34635"/>
<g filter="url(#filter0_d_5_38)">
<path d="M69.9883 118.281C69.5326 117.943 69.3047 117.539 69.3047 117.07C69.3047 116.888 69.3372 116.712 69.4023 116.543C69.4674 116.361 69.5846 116.178 69.7539 115.996L70.3203 115.352C70.6589 114.935 71.056 114.727 71.5117 114.727C71.668 114.727 71.8372 114.759 72.0195 114.824C72.1888 114.876 72.3646 114.974 72.5469 115.117C74.3698 116.484 76.1211 117.904 77.8008 119.375C79.4935 120.833 81.1276 122.428 82.7031 124.16C82.9505 124.395 83.1654 124.512 83.3477 124.512C83.6992 124.512 83.9141 124.277 83.9922 123.809L85.7109 116.953C85.9062 116.185 86.3034 115.801 86.9023 115.801C87.0326 115.801 87.1693 115.82 87.3125 115.859C87.4688 115.898 87.625 115.97 87.7812 116.074L88.4648 116.445C89.1029 116.797 89.4219 117.272 89.4219 117.871C89.4219 118.066 89.3828 118.281 89.3047 118.516C88.862 120.143 88.4128 121.862 87.957 123.672C87.5143 125.469 87.0586 127.318 86.5898 129.219C86.1211 131.107 85.6393 133.021 85.1445 134.961C84.6497 136.901 84.1419 138.822 83.6211 140.723C83.4128 141.517 82.9635 141.914 82.2734 141.914C82.0781 141.914 81.8633 141.875 81.6289 141.797L80.9844 141.602C80.5807 141.497 80.2878 141.328 80.1055 141.094C79.9232 140.859 79.832 140.573 79.832 140.234C79.832 140.156 79.832 140.065 79.832 139.961C79.8451 139.857 79.8711 139.753 79.9102 139.648C80.3268 138.099 80.737 136.562 81.1406 135.039C81.5443 133.516 81.9349 131.986 82.3125 130.449C82.3385 130.358 82.3581 130.28 82.3711 130.215C82.3841 130.15 82.3906 130.078 82.3906 130C82.3906 129.844 82.3516 129.694 82.2734 129.551C82.2083 129.408 82.1172 129.264 82 129.121C80.1641 127.09 78.2435 125.182 76.2383 123.398C74.2461 121.615 72.1628 119.909 69.9883 118.281ZM92.8203 128.516C92.8203 128.294 92.8464 128.047 92.8984 127.773C92.9505 127.5 92.9766 127.201 92.9766 126.875C92.9766 126.654 92.8789 126.484 92.6836 126.367C92.5013 126.25 92.293 126.12 92.0586 125.977C91.8242 125.833 91.6094 125.651 91.4141 125.43C91.2318 125.208 91.1406 124.889 91.1406 124.473C91.1406 124.173 91.2188 123.874 91.375 123.574C91.5443 123.275 91.7852 123.001 92.0977 122.754C92.8659 122.181 93.6602 121.667 94.4805 121.211C95.3138 120.755 96.1406 120.371 96.9609 120.059C97.7943 119.746 98.6146 119.505 99.4219 119.336C100.229 119.167 101.004 119.082 101.746 119.082C102.996 119.082 104.168 119.316 105.262 119.785C106.368 120.241 107.326 120.872 108.133 121.68C108.953 122.474 109.598 123.411 110.066 124.492C110.548 125.56 110.789 126.706 110.789 127.93C110.789 129.128 110.535 130.267 110.027 131.348C109.533 132.415 108.862 133.353 108.016 134.16C107.169 134.967 106.173 135.605 105.027 136.074C103.895 136.556 102.697 136.797 101.434 136.797C100.197 136.797 99.0508 136.589 97.9961 136.172C96.9414 135.755 96.0299 135.182 95.2617 134.453C94.4935 133.711 93.8945 132.839 93.4648 131.836C93.0352 130.82 92.8203 129.714 92.8203 128.516ZM101.863 133.281C102.41 133.281 102.977 133.171 103.562 132.949C104.148 132.728 104.682 132.409 105.164 131.992C105.659 131.562 106.062 131.042 106.375 130.43C106.701 129.818 106.863 129.128 106.863 128.359C106.863 127.578 106.72 126.849 106.434 126.172C106.147 125.495 105.75 124.909 105.242 124.414C104.747 123.906 104.155 123.509 103.465 123.223C102.788 122.936 102.052 122.793 101.258 122.793C99.8125 122.793 98.7057 123.171 97.9375 123.926C97.1693 124.668 96.7852 125.814 96.7852 127.363C96.7852 128.21 96.9089 128.997 97.1562 129.727C97.4167 130.443 97.7747 131.068 98.2305 131.602C98.6862 132.122 99.2201 132.533 99.832 132.832C100.457 133.132 101.134 133.281 101.863 133.281ZM117.449 128.086C117.449 129.831 117.716 131.178 118.25 132.129C118.784 133.079 119.559 133.555 120.574 133.555C121.212 133.555 121.798 133.366 122.332 132.988C122.879 132.611 123.348 132.083 123.738 131.406C124.129 130.729 124.428 129.928 124.637 129.004C124.858 128.066 124.969 127.051 124.969 125.957C124.969 125.293 124.943 124.72 124.891 124.238C124.839 123.743 124.78 123.307 124.715 122.93C124.663 122.539 124.611 122.194 124.559 121.895C124.507 121.595 124.48 121.309 124.48 121.035C124.48 120.618 124.656 120.319 125.008 120.137C125.359 119.941 125.919 119.844 126.688 119.844C127.664 119.844 128.419 120.065 128.953 120.508C129.5 120.951 129.773 121.595 129.773 122.441C129.773 124.746 129.546 126.816 129.09 128.652C128.647 130.488 128.003 132.051 127.156 133.34C126.323 134.616 125.307 135.599 124.109 136.289C122.911 136.979 121.57 137.324 120.086 137.324C119.031 137.324 118.055 137.103 117.156 136.66C116.271 136.23 115.503 135.625 114.852 134.844C114.214 134.049 113.712 133.112 113.348 132.031C112.983 130.938 112.801 129.74 112.801 128.438C112.801 127.943 112.814 127.415 112.84 126.855C112.866 126.296 112.905 125.697 112.957 125.059C113.009 124.408 113.074 123.704 113.152 122.949C113.243 122.194 113.341 121.374 113.445 120.488C113.484 120.111 113.66 119.811 113.973 119.59C114.298 119.355 114.708 119.238 115.203 119.238C115.646 119.238 116.062 119.284 116.453 119.375C116.844 119.466 117.176 119.59 117.449 119.746C117.736 119.902 117.957 120.085 118.113 120.293C118.283 120.501 118.367 120.723 118.367 120.957C118.367 121.191 118.315 121.562 118.211 122.07C118.12 122.565 118.016 123.138 117.898 123.789C117.794 124.427 117.69 125.124 117.586 125.879C117.495 126.621 117.449 127.357 117.449 128.086ZM142.723 120.391C142.241 120.391 141.818 120.521 141.453 120.781C141.089 121.029 140.776 121.38 140.516 121.836C140.255 122.279 140.04 122.806 139.871 123.418C139.702 124.017 139.565 124.674 139.461 125.391C139.357 126.107 139.285 126.855 139.246 127.637C139.207 128.418 139.188 129.206 139.188 130C139.188 131.042 139.227 132.07 139.305 133.086C139.396 134.089 139.441 135.02 139.441 135.879C139.441 136.439 139.233 136.875 138.816 137.188C138.4 137.513 137.807 137.676 137.039 137.676C136.896 137.676 136.733 137.663 136.551 137.637C136.368 137.611 136.193 137.559 136.023 137.48C135.867 137.402 135.724 137.292 135.594 137.148C135.477 137.018 135.411 136.836 135.398 136.602C135.281 135.456 135.112 134.284 134.891 133.086C134.669 131.888 134.389 130.697 134.051 129.512C133.725 128.314 133.328 127.129 132.859 125.957C132.404 124.785 131.876 123.639 131.277 122.52C131.173 122.324 131.082 122.142 131.004 121.973C130.939 121.803 130.906 121.641 130.906 121.484C130.906 121.289 130.991 121.081 131.16 120.859C131.342 120.625 131.564 120.41 131.824 120.215C132.098 120.02 132.391 119.863 132.703 119.746C133.029 119.616 133.341 119.551 133.641 119.551C134.135 119.551 134.572 119.896 134.949 120.586C135.327 121.263 135.678 122.35 136.004 123.848C136.069 124.108 136.121 124.29 136.16 124.395C136.199 124.499 136.251 124.551 136.316 124.551C136.46 124.551 136.551 124.329 136.59 123.887C136.746 122.65 137.013 121.589 137.391 120.703C137.768 119.805 138.237 119.069 138.797 118.496C139.37 117.91 140.021 117.48 140.75 117.207C141.492 116.934 142.306 116.797 143.191 116.797C143.699 116.797 144.214 116.842 144.734 116.934C145.255 117.025 145.724 117.161 146.141 117.344C146.557 117.526 146.896 117.747 147.156 118.008C147.417 118.268 147.547 118.561 147.547 118.887C147.547 119.121 147.495 119.401 147.391 119.727C147.299 120.039 147.176 120.345 147.02 120.645C146.863 120.931 146.681 121.178 146.473 121.387C146.277 121.582 146.076 121.68 145.867 121.68C145.633 121.68 145.405 121.615 145.184 121.484C144.962 121.341 144.721 121.191 144.461 121.035C144.214 120.879 143.947 120.736 143.66 120.605C143.387 120.462 143.074 120.391 142.723 120.391ZM166.258 119.922C166.297 119.557 166.342 119.258 166.395 119.023C166.46 118.776 166.551 118.581 166.668 118.438C166.798 118.281 166.961 118.171 167.156 118.105C167.352 118.04 167.599 118.008 167.898 118.008C168.849 118.008 169.546 118.151 169.988 118.438C170.444 118.711 170.672 119.154 170.672 119.766C170.672 119.883 170.646 120.143 170.594 120.547C170.555 120.938 170.496 121.426 170.418 122.012C170.34 122.585 170.249 123.223 170.145 123.926C170.053 124.616 169.962 125.319 169.871 126.035C169.637 127.702 169.37 129.57 169.07 131.641C168.888 132.865 168.523 133.743 167.977 134.277C167.443 134.811 166.648 135.078 165.594 135.078C164.799 135.078 163.979 134.876 163.133 134.473C162.286 134.069 161.466 133.522 160.672 132.832C159.878 132.142 159.122 131.341 158.406 130.43C157.703 129.505 157.085 128.529 156.551 127.5C156.017 126.458 155.594 125.397 155.281 124.316C154.982 123.236 154.832 122.181 154.832 121.152C154.832 119.993 154.995 119.128 155.32 118.555C155.659 117.969 156.238 117.676 157.059 117.676C157.632 117.676 158.107 117.715 158.484 117.793C158.862 117.858 159.161 117.982 159.383 118.164C159.617 118.333 159.78 118.561 159.871 118.848C159.975 119.134 160.027 119.492 160.027 119.922C160.027 120.208 160.014 120.495 159.988 120.781C159.962 121.068 159.949 121.354 159.949 121.641C159.949 122.305 160.014 123.001 160.145 123.73C160.288 124.447 160.477 125.15 160.711 125.84C160.945 126.53 161.219 127.188 161.531 127.812C161.844 128.424 162.176 128.965 162.527 129.434C162.879 129.902 163.23 130.273 163.582 130.547C163.947 130.82 164.298 130.957 164.637 130.957C164.871 130.957 165.047 130.879 165.164 130.723C165.294 130.566 165.379 130.299 165.418 129.922L166.258 119.922ZM176.395 115.078C176.017 115.078 175.659 115.026 175.32 114.922C174.995 114.805 174.708 114.648 174.461 114.453C174.227 114.245 174.038 114.004 173.895 113.73C173.751 113.457 173.68 113.158 173.68 112.832C173.68 112.285 173.895 111.842 174.324 111.504C174.767 111.165 175.353 110.996 176.082 110.996C176.421 110.996 176.746 111.061 177.059 111.191C177.371 111.309 177.645 111.471 177.879 111.68C178.126 111.888 178.322 112.135 178.465 112.422C178.608 112.695 178.68 112.982 178.68 113.281C178.68 113.841 178.471 114.284 178.055 114.609C177.651 114.922 177.098 115.078 176.395 115.078ZM173.719 121.035C173.719 120.579 173.914 120.208 174.305 119.922C174.708 119.622 175.236 119.473 175.887 119.473C177.059 119.473 177.684 119.876 177.762 120.684C177.814 121.243 177.866 121.875 177.918 122.578C177.983 123.281 178.042 124.03 178.094 124.824C178.159 125.605 178.211 126.419 178.25 127.266C178.302 128.099 178.348 128.926 178.387 129.746C178.426 130.553 178.458 131.335 178.484 132.09C178.51 132.845 178.523 133.535 178.523 134.16C178.523 134.811 178.289 135.299 177.82 135.625C177.365 135.951 176.694 136.113 175.809 136.113C175.405 136.113 175.086 136.016 174.852 135.82C174.63 135.638 174.52 135.365 174.52 135C174.52 133.203 174.474 131.523 174.383 129.961C174.305 128.385 174.214 126.986 174.109 125.762C174.018 124.538 173.927 123.522 173.836 122.715C173.758 121.895 173.719 121.335 173.719 121.035ZM187 118.047C187.872 118.047 188.771 118.164 189.695 118.398C190.62 118.62 191.466 118.913 192.234 119.277C193.003 119.629 193.634 120.026 194.129 120.469C194.624 120.911 194.871 121.341 194.871 121.758C194.871 121.966 194.78 122.201 194.598 122.461C194.415 122.708 194.194 122.949 193.934 123.184C193.673 123.405 193.387 123.594 193.074 123.75C192.775 123.893 192.508 123.965 192.273 123.965C191.961 123.965 191.609 123.835 191.219 123.574C190.841 123.314 190.418 123.027 189.949 122.715C189.493 122.389 188.992 122.096 188.445 121.836C187.898 121.576 187.306 121.445 186.668 121.445C186.251 121.445 185.906 121.549 185.633 121.758C185.372 121.953 185.242 122.233 185.242 122.598C185.242 122.923 185.398 123.255 185.711 123.594C186.023 123.919 186.434 124.258 186.941 124.609C187.462 124.961 188.048 125.332 188.699 125.723C189.35 126.113 190.014 126.53 190.691 126.973C191.382 127.415 192.052 127.897 192.703 128.418C193.354 128.939 193.934 129.505 194.441 130.117C194.962 130.729 195.379 131.4 195.691 132.129C196.004 132.845 196.16 133.626 196.16 134.473C196.16 135.202 196.03 135.866 195.77 136.465C195.509 137.064 195.138 137.578 194.656 138.008C194.174 138.438 193.602 138.77 192.938 139.004C192.273 139.238 191.544 139.355 190.75 139.355C189.747 139.355 188.823 139.199 187.977 138.887C187.13 138.587 186.401 138.171 185.789 137.637C185.177 137.103 184.695 136.465 184.344 135.723C184.005 134.98 183.836 134.167 183.836 133.281C183.836 132.135 184.038 131.302 184.441 130.781C184.858 130.26 185.509 130 186.395 130C186.941 130 187.378 130.104 187.703 130.312C188.029 130.521 188.191 130.775 188.191 131.074C188.191 131.23 188.165 131.393 188.113 131.562C188.061 131.719 188.003 131.888 187.938 132.07C187.885 132.24 187.833 132.422 187.781 132.617C187.742 132.812 187.723 133.008 187.723 133.203C187.723 133.542 187.801 133.867 187.957 134.18C188.113 134.492 188.322 134.766 188.582 135C188.855 135.247 189.168 135.443 189.52 135.586C189.871 135.729 190.242 135.801 190.633 135.801C191.674 135.801 192.195 135.371 192.195 134.512C192.195 133.835 191.928 133.197 191.395 132.598C190.861 131.986 190.19 131.393 189.383 130.82C188.576 130.234 187.703 129.648 186.766 129.062C185.841 128.477 184.975 127.865 184.168 127.227C183.361 126.589 182.69 125.911 182.156 125.195C181.622 124.466 181.355 123.678 181.355 122.832C181.355 122.129 181.499 121.484 181.785 120.898C182.085 120.312 182.488 119.811 182.996 119.395C183.504 118.965 184.096 118.633 184.773 118.398C185.464 118.164 186.206 118.047 187 118.047ZM199.793 115.078C199.415 115.078 199.057 115.026 198.719 114.922C198.393 114.805 198.107 114.648 197.859 114.453C197.625 114.245 197.436 114.004 197.293 113.73C197.15 113.457 197.078 113.158 197.078 112.832C197.078 112.285 197.293 111.842 197.723 111.504C198.165 111.165 198.751 110.996 199.48 110.996C199.819 110.996 200.145 111.061 200.457 111.191C200.77 111.309 201.043 111.471 201.277 111.68C201.525 111.888 201.72 112.135 201.863 112.422C202.007 112.695 202.078 112.982 202.078 113.281C202.078 113.841 201.87 114.284 201.453 114.609C201.049 114.922 200.496 115.078 199.793 115.078ZM197.117 121.035C197.117 120.579 197.312 120.208 197.703 119.922C198.107 119.622 198.634 119.473 199.285 119.473C200.457 119.473 201.082 119.876 201.16 120.684C201.212 121.243 201.264 121.875 201.316 122.578C201.382 123.281 201.44 124.03 201.492 124.824C201.557 125.605 201.609 126.419 201.648 127.266C201.701 128.099 201.746 128.926 201.785 129.746C201.824 130.553 201.857 131.335 201.883 132.09C201.909 132.845 201.922 133.535 201.922 134.16C201.922 134.811 201.688 135.299 201.219 135.625C200.763 135.951 200.092 136.113 199.207 136.113C198.803 136.113 198.484 136.016 198.25 135.82C198.029 135.638 197.918 135.365 197.918 135C197.918 133.203 197.872 131.523 197.781 129.961C197.703 128.385 197.612 126.986 197.508 125.762C197.417 124.538 197.326 123.522 197.234 122.715C197.156 121.895 197.117 121.335 197.117 121.035ZM205.789 128.516C205.789 128.294 205.815 128.047 205.867 127.773C205.919 127.5 205.945 127.201 205.945 126.875C205.945 126.654 205.848 126.484 205.652 126.367C205.47 126.25 205.262 126.12 205.027 125.977C204.793 125.833 204.578 125.651 204.383 125.43C204.201 125.208 204.109 124.889 204.109 124.473C204.109 124.173 204.188 123.874 204.344 123.574C204.513 123.275 204.754 123.001 205.066 122.754C205.835 122.181 206.629 121.667 207.449 121.211C208.283 120.755 209.109 120.371 209.93 120.059C210.763 119.746 211.583 119.505 212.391 119.336C213.198 119.167 213.973 119.082 214.715 119.082C215.965 119.082 217.137 119.316 218.23 119.785C219.337 120.241 220.294 120.872 221.102 121.68C221.922 122.474 222.566 123.411 223.035 124.492C223.517 125.56 223.758 126.706 223.758 127.93C223.758 129.128 223.504 130.267 222.996 131.348C222.501 132.415 221.831 133.353 220.984 134.16C220.138 134.967 219.142 135.605 217.996 136.074C216.863 136.556 215.665 136.797 214.402 136.797C213.165 136.797 212.02 136.589 210.965 136.172C209.91 135.755 208.999 135.182 208.23 134.453C207.462 133.711 206.863 132.839 206.434 131.836C206.004 130.82 205.789 129.714 205.789 128.516ZM214.832 133.281C215.379 133.281 215.945 133.171 216.531 132.949C217.117 132.728 217.651 132.409 218.133 131.992C218.628 131.562 219.031 131.042 219.344 130.43C219.669 129.818 219.832 129.128 219.832 128.359C219.832 127.578 219.689 126.849 219.402 126.172C219.116 125.495 218.719 124.909 218.211 124.414C217.716 123.906 217.124 123.509 216.434 123.223C215.757 122.936 215.021 122.793 214.227 122.793C212.781 122.793 211.674 123.171 210.906 123.926C210.138 124.668 209.754 125.814 209.754 127.363C209.754 128.21 209.878 128.997 210.125 129.727C210.385 130.443 210.743 131.068 211.199 131.602C211.655 132.122 212.189 132.533 212.801 132.832C213.426 133.132 214.103 133.281 214.832 133.281ZM226.648 119.238C226.648 119.043 226.733 118.854 226.902 118.672C227.072 118.477 227.293 118.307 227.566 118.164C227.84 118.008 228.146 117.884 228.484 117.793C228.836 117.689 229.188 117.637 229.539 117.637C229.734 117.637 229.897 117.689 230.027 117.793C230.171 117.897 230.294 118.099 230.398 118.398C230.503 118.685 230.594 119.095 230.672 119.629C230.763 120.15 230.848 120.833 230.926 121.68C230.978 121.94 231.023 122.142 231.062 122.285C231.115 122.415 231.18 122.48 231.258 122.48C231.375 122.48 231.492 122.279 231.609 121.875C232.56 119.128 233.934 117.754 235.73 117.754C236.564 117.754 237.319 118.014 237.996 118.535C238.686 119.056 239.324 119.909 239.91 121.094C240.509 122.266 241.076 123.815 241.609 125.742C242.143 127.656 242.677 130.02 243.211 132.832C243.237 132.975 243.257 133.105 243.27 133.223C243.283 133.34 243.289 133.451 243.289 133.555C243.289 133.854 243.217 134.115 243.074 134.336C242.944 134.544 242.768 134.72 242.547 134.863C242.326 134.993 242.078 135.091 241.805 135.156C241.531 135.234 241.258 135.273 240.984 135.273C240.438 135.273 240.04 135.215 239.793 135.098C239.559 134.98 239.409 134.759 239.344 134.434C238.966 132.454 238.595 130.697 238.23 129.16C237.879 127.624 237.527 126.335 237.176 125.293C236.837 124.238 236.499 123.438 236.16 122.891C235.822 122.344 235.483 122.07 235.145 122.07C234.806 122.07 234.487 122.285 234.188 122.715C233.901 123.132 233.621 123.789 233.348 124.688C233.074 125.586 232.807 126.725 232.547 128.105C232.299 129.486 232.059 131.133 231.824 133.047C231.759 133.568 231.499 133.984 231.043 134.297C230.587 134.609 230.008 134.766 229.305 134.766C228.836 134.766 228.478 134.668 228.23 134.473C227.983 134.277 227.846 134.01 227.82 133.672C227.703 130.964 227.573 128.737 227.43 126.992C227.299 125.234 227.176 123.828 227.059 122.773C226.941 121.706 226.844 120.911 226.766 120.391C226.688 119.87 226.648 119.486 226.648 119.238ZM257.762 115.078C257.384 115.078 257.026 115.026 256.688 114.922C256.362 114.805 256.076 114.648 255.828 114.453C255.594 114.245 255.405 114.004 255.262 113.73C255.118 113.457 255.047 113.158 255.047 112.832C255.047 112.285 255.262 111.842 255.691 111.504C256.134 111.165 256.72 110.996 257.449 110.996C257.788 110.996 258.113 111.061 258.426 111.191C258.738 111.309 259.012 111.471 259.246 111.68C259.493 111.888 259.689 112.135 259.832 112.422C259.975 112.695 260.047 112.982 260.047 113.281C260.047 113.841 259.839 114.284 259.422 114.609C259.018 114.922 258.465 115.078 257.762 115.078ZM255.086 121.035C255.086 120.579 255.281 120.208 255.672 119.922C256.076 119.622 256.603 119.473 257.254 119.473C258.426 119.473 259.051 119.876 259.129 120.684C259.181 121.243 259.233 121.875 259.285 122.578C259.35 123.281 259.409 124.03 259.461 124.824C259.526 125.605 259.578 126.419 259.617 127.266C259.669 128.099 259.715 128.926 259.754 129.746C259.793 130.553 259.826 131.335 259.852 132.09C259.878 132.845 259.891 133.535 259.891 134.16C259.891 134.811 259.656 135.299 259.188 135.625C258.732 135.951 258.061 136.113 257.176 136.113C256.772 136.113 256.453 136.016 256.219 135.82C255.997 135.638 255.887 135.365 255.887 135C255.887 133.203 255.841 131.523 255.75 129.961C255.672 128.385 255.581 126.986 255.477 125.762C255.385 124.538 255.294 123.522 255.203 122.715C255.125 121.895 255.086 121.335 255.086 121.035ZM268.367 118.047C269.24 118.047 270.138 118.164 271.062 118.398C271.987 118.62 272.833 118.913 273.602 119.277C274.37 119.629 275.001 120.026 275.496 120.469C275.991 120.911 276.238 121.341 276.238 121.758C276.238 121.966 276.147 122.201 275.965 122.461C275.783 122.708 275.561 122.949 275.301 123.184C275.04 123.405 274.754 123.594 274.441 123.75C274.142 123.893 273.875 123.965 273.641 123.965C273.328 123.965 272.977 123.835 272.586 123.574C272.208 123.314 271.785 123.027 271.316 122.715C270.861 122.389 270.359 122.096 269.812 121.836C269.266 121.576 268.673 121.445 268.035 121.445C267.618 121.445 267.273 121.549 267 121.758C266.74 121.953 266.609 122.233 266.609 122.598C266.609 122.923 266.766 123.255 267.078 123.594C267.391 123.919 267.801 124.258 268.309 124.609C268.829 124.961 269.415 125.332 270.066 125.723C270.717 126.113 271.382 126.53 272.059 126.973C272.749 127.415 273.419 127.897 274.07 128.418C274.721 128.939 275.301 129.505 275.809 130.117C276.329 130.729 276.746 131.4 277.059 132.129C277.371 132.845 277.527 133.626 277.527 134.473C277.527 135.202 277.397 135.866 277.137 136.465C276.876 137.064 276.505 137.578 276.023 138.008C275.542 138.438 274.969 138.77 274.305 139.004C273.641 139.238 272.911 139.355 272.117 139.355C271.115 139.355 270.19 139.199 269.344 138.887C268.497 138.587 267.768 138.171 267.156 137.637C266.544 137.103 266.062 136.465 265.711 135.723C265.372 134.98 265.203 134.167 265.203 133.281C265.203 132.135 265.405 131.302 265.809 130.781C266.225 130.26 266.876 130 267.762 130C268.309 130 268.745 130.104 269.07 130.312C269.396 130.521 269.559 130.775 269.559 131.074C269.559 131.23 269.533 131.393 269.48 131.562C269.428 131.719 269.37 131.888 269.305 132.07C269.253 132.24 269.201 132.422 269.148 132.617C269.109 132.812 269.09 133.008 269.09 133.203C269.09 133.542 269.168 133.867 269.324 134.18C269.48 134.492 269.689 134.766 269.949 135C270.223 135.247 270.535 135.443 270.887 135.586C271.238 135.729 271.609 135.801 272 135.801C273.042 135.801 273.562 135.371 273.562 134.512C273.562 133.835 273.296 133.197 272.762 132.598C272.228 131.986 271.557 131.393 270.75 130.82C269.943 130.234 269.07 129.648 268.133 129.062C267.208 128.477 266.342 127.865 265.535 127.227C264.728 126.589 264.057 125.911 263.523 125.195C262.99 124.466 262.723 123.678 262.723 122.832C262.723 122.129 262.866 121.484 263.152 120.898C263.452 120.312 263.855 119.811 264.363 119.395C264.871 118.965 265.464 118.633 266.141 118.398C266.831 118.164 267.573 118.047 268.367 118.047ZM87.6641 167.391C87.1823 167.391 86.7591 167.521 86.3945 167.781C86.0299 168.029 85.7174 168.38 85.457 168.836C85.1966 169.279 84.9818 169.806 84.8125 170.418C84.6432 171.017 84.5065 171.674 84.4023 172.391C84.2982 173.107 84.2266 173.855 84.1875 174.637C84.1484 175.418 84.1289 176.206 84.1289 177C84.1289 178.042 84.168 179.07 84.2461 180.086C84.3372 181.089 84.3828 182.02 84.3828 182.879C84.3828 183.439 84.1745 183.875 83.7578 184.188C83.3411 184.513 82.7487 184.676 81.9805 184.676C81.8372 184.676 81.6745 184.663 81.4922 184.637C81.3099 184.611 81.1341 184.559 80.9648 184.48C80.8086 184.402 80.6654 184.292 80.5352 184.148C80.418 184.018 80.3529 183.836 80.3398 183.602C80.2227 182.456 80.0534 181.284 79.832 180.086C79.6107 178.888 79.3307 177.697 78.9922 176.512C78.6667 175.314 78.2695 174.129 77.8008 172.957C77.3451 171.785 76.8177 170.639 76.2188 169.52C76.1146 169.324 76.0234 169.142 75.9453 168.973C75.8802 168.803 75.8477 168.641 75.8477 168.484C75.8477 168.289 75.9323 168.081 76.1016 167.859C76.2839 167.625 76.5052 167.41 76.7656 167.215C77.0391 167.02 77.332 166.863 77.6445 166.746C77.9701 166.616 78.2826 166.551 78.582 166.551C79.0768 166.551 79.513 166.896 79.8906 167.586C80.2682 168.263 80.6198 169.35 80.9453 170.848C81.0104 171.108 81.0625 171.29 81.1016 171.395C81.1406 171.499 81.1927 171.551 81.2578 171.551C81.401 171.551 81.4922 171.329 81.5312 170.887C81.6875 169.65 81.9544 168.589 82.332 167.703C82.7096 166.805 83.1784 166.069 83.7383 165.496C84.3112 164.91 84.9622 164.48 85.6914 164.207C86.4336 163.934 87.2474 163.797 88.1328 163.797C88.6406 163.797 89.1549 163.842 89.6758 163.934C90.1966 164.025 90.6654 164.161 91.082 164.344C91.4987 164.526 91.8372 164.747 92.0977 165.008C92.3581 165.268 92.4883 165.561 92.4883 165.887C92.4883 166.121 92.4362 166.401 92.332 166.727C92.2409 167.039 92.1172 167.345 91.9609 167.645C91.8047 167.931 91.6224 168.178 91.4141 168.387C91.2188 168.582 91.0169 168.68 90.8086 168.68C90.5742 168.68 90.3464 168.615 90.125 168.484C89.9036 168.341 89.6628 168.191 89.4023 168.035C89.1549 167.879 88.888 167.736 88.6016 167.605C88.3281 167.462 88.0156 167.391 87.6641 167.391ZM107.879 177.723C108.257 177.397 108.628 177.234 108.992 177.234C109.201 177.234 109.389 177.286 109.559 177.391C109.728 177.495 109.917 177.658 110.125 177.879C110.32 178.178 110.457 178.426 110.535 178.621C110.626 178.803 110.672 178.986 110.672 179.168C110.672 179.559 110.477 179.93 110.086 180.281C109.461 180.802 108.784 181.271 108.055 181.688C107.326 182.091 106.564 182.436 105.77 182.723C104.975 183.009 104.155 183.224 103.309 183.367C102.462 183.523 101.622 183.602 100.789 183.602C99.7344 183.602 98.7448 183.465 97.8203 183.191C96.8958 182.931 96.069 182.553 95.3398 182.059C94.6237 181.564 94.0182 180.971 93.5234 180.281C93.0286 179.578 92.6771 178.79 92.4688 177.918C92.3516 177.553 92.2409 177.319 92.1367 177.215C92.0456 177.098 91.8893 177.039 91.668 177.039C91.1862 177.039 90.8151 176.922 90.5547 176.688C90.2943 176.453 90.1641 176.115 90.1641 175.672C90.1641 175.49 90.1771 175.372 90.2031 175.32L90.2422 174.93C90.3073 174.461 90.431 174.122 90.6133 173.914C90.8086 173.706 91.1081 173.602 91.5117 173.602H91.8047C92.3516 173.602 92.7357 173.348 92.957 172.84C93.3607 171.941 93.875 171.121 94.5 170.379C95.125 169.637 95.8281 169.005 96.6094 168.484C97.3906 167.951 98.224 167.54 99.1094 167.254C100.008 166.954 100.919 166.805 101.844 166.805C102.807 166.805 103.706 166.948 104.539 167.234C105.385 167.508 106.121 167.892 106.746 168.387C107.371 168.882 107.859 169.461 108.211 170.125C108.576 170.789 108.758 171.505 108.758 172.273C108.758 172.807 108.654 173.296 108.445 173.738C108.237 174.181 107.938 174.572 107.547 174.91C107.156 175.236 106.681 175.503 106.121 175.711C105.574 175.919 104.949 176.056 104.246 176.121L97.4688 176.805C97.2083 176.805 96.9935 176.87 96.8242 177C96.668 177.13 96.5898 177.306 96.5898 177.527C96.5898 177.866 96.7135 178.191 96.9609 178.504C97.2214 178.816 97.5599 179.096 97.9766 179.344C98.4062 179.578 98.8945 179.767 99.4414 179.91C100.001 180.053 100.574 180.125 101.16 180.125C101.72 180.125 102.293 180.073 102.879 179.969C103.478 179.852 104.064 179.689 104.637 179.48C105.223 179.272 105.789 179.025 106.336 178.738C106.883 178.439 107.397 178.1 107.879 177.723ZM103.523 172.684C103.719 172.645 103.888 172.553 104.031 172.41C104.174 172.254 104.246 172.065 104.246 171.844C104.246 171.648 104.174 171.466 104.031 171.297C103.888 171.128 103.693 170.978 103.445 170.848C103.198 170.704 102.911 170.594 102.586 170.516C102.26 170.438 101.915 170.398 101.551 170.398C101.017 170.398 100.47 170.477 99.9102 170.633C99.3503 170.789 98.8424 170.997 98.3867 171.258C97.931 171.505 97.5599 171.785 97.2734 172.098C96.987 172.397 96.8438 172.697 96.8438 172.996C96.8438 173.296 97.026 173.445 97.3906 173.445C97.612 173.445 97.9701 173.419 98.4648 173.367C98.9596 173.315 99.5065 173.257 100.105 173.191C100.704 173.113 101.31 173.029 101.922 172.938C102.534 172.846 103.068 172.762 103.523 172.684ZM124.188 164.93C124.904 164.93 125.594 165.04 126.258 165.262C126.922 165.483 127.508 165.789 128.016 166.18C128.523 166.57 128.927 167.039 129.227 167.586C129.539 168.133 129.695 168.738 129.695 169.402C129.695 169.676 129.63 169.943 129.5 170.203C129.383 170.451 129.22 170.672 129.012 170.867C128.803 171.049 128.562 171.199 128.289 171.316C128.029 171.421 127.755 171.473 127.469 171.473C127.443 171.473 127.417 171.479 127.391 171.492C127.378 171.492 127.358 171.492 127.332 171.492C127.306 171.505 127.28 171.512 127.254 171.512L127.332 173.074C127.384 174.936 127.645 176.297 128.113 177.156C128.595 178.016 129.22 178.445 129.988 178.445C130.262 178.445 130.503 178.419 130.711 178.367C130.932 178.315 131.134 178.257 131.316 178.191C131.512 178.113 131.694 178.048 131.863 177.996C132.033 177.944 132.202 177.918 132.371 177.918C132.671 177.918 132.931 178.048 133.152 178.309C133.387 178.569 133.504 178.882 133.504 179.246C133.504 179.611 133.361 179.975 133.074 180.34C132.801 180.704 132.436 181.036 131.98 181.336C131.525 181.622 131.01 181.857 130.438 182.039C129.865 182.221 129.285 182.312 128.699 182.312C127.684 182.312 126.792 181.896 126.023 181.062C125.255 180.216 124.708 178.979 124.383 177.352C124.305 177.091 124.201 176.961 124.07 176.961C123.914 176.961 123.777 177.039 123.66 177.195C122.371 178.823 120.997 180.047 119.539 180.867C118.081 181.674 116.642 182.078 115.223 182.078C114.559 182.078 113.96 181.98 113.426 181.785C112.892 181.59 112.436 181.316 112.059 180.965C111.694 180.6 111.408 180.164 111.199 179.656C111.004 179.135 110.906 178.556 110.906 177.918C110.906 177.02 111.102 176.076 111.492 175.086C111.896 174.096 112.436 173.12 113.113 172.156C113.79 171.193 114.572 170.275 115.457 169.402C116.355 168.53 117.293 167.762 118.27 167.098C119.259 166.434 120.262 165.906 121.277 165.516C122.293 165.125 123.263 164.93 124.188 164.93ZM123.543 171.688C123.777 171.245 123.992 170.926 124.188 170.73C124.383 170.522 124.663 170.385 125.027 170.32C125.314 170.281 125.457 170.19 125.457 170.047C125.457 169.943 125.418 169.832 125.34 169.715C125.092 169.376 124.832 169.083 124.559 168.836C124.285 168.576 123.921 168.445 123.465 168.445C122.97 168.445 122.417 168.589 121.805 168.875C121.193 169.161 120.568 169.546 119.93 170.027C119.305 170.496 118.686 171.036 118.074 171.648C117.475 172.247 116.941 172.866 116.473 173.504C116.004 174.142 115.626 174.773 115.34 175.398C115.053 176.023 114.91 176.583 114.91 177.078C114.91 177.521 115.027 177.866 115.262 178.113C115.509 178.361 115.841 178.484 116.258 178.484C117.326 178.484 118.491 177.918 119.754 176.785C121.017 175.652 122.28 173.953 123.543 171.688ZM147.215 167.723C147.267 167.749 147.345 167.762 147.449 167.762C147.736 167.762 147.879 167.573 147.879 167.195V161.121C147.879 160.353 148.048 159.806 148.387 159.48C148.738 159.155 149.318 158.992 150.125 158.992C150.945 158.992 151.525 159.161 151.863 159.5C152.202 159.839 152.371 160.418 152.371 161.238C152.371 161.551 152.352 162.013 152.312 162.625C152.273 163.224 152.228 163.908 152.176 164.676C152.137 165.444 152.098 166.271 152.059 167.156C152.02 168.029 152 168.895 152 169.754C152 171.082 152.091 172.228 152.273 173.191C152.456 174.155 152.716 174.956 153.055 175.594C153.393 176.219 153.797 176.688 154.266 177C154.734 177.299 155.262 177.449 155.848 177.449C156.173 177.449 156.466 177.41 156.727 177.332C157 177.241 157.319 177.195 157.684 177.195C157.944 177.195 158.159 177.332 158.328 177.605C158.51 177.866 158.602 178.185 158.602 178.562C158.602 178.901 158.497 179.22 158.289 179.52C158.094 179.819 157.82 180.079 157.469 180.301C157.13 180.522 156.733 180.698 156.277 180.828C155.822 180.945 155.346 181.004 154.852 181.004C153.784 181.004 152.807 180.678 151.922 180.027C151.036 179.363 150.372 178.354 149.93 177C149.891 176.792 149.826 176.688 149.734 176.688C149.63 176.688 149.546 176.792 149.48 177C149.129 177.951 148.667 178.81 148.094 179.578C147.534 180.333 146.876 180.984 146.121 181.531C145.379 182.065 144.559 182.475 143.66 182.762C142.775 183.048 141.837 183.191 140.848 183.191C139.806 183.191 138.849 183.016 137.977 182.664C137.117 182.326 136.375 181.85 135.75 181.238C135.125 180.613 134.637 179.884 134.285 179.051C133.934 178.204 133.758 177.293 133.758 176.316C133.758 175.066 134.018 173.888 134.539 172.781C135.06 171.674 135.763 170.711 136.648 169.891C137.547 169.057 138.589 168.4 139.773 167.918C140.958 167.436 142.221 167.195 143.562 167.195C144.109 167.195 144.689 167.241 145.301 167.332C145.913 167.41 146.551 167.54 147.215 167.723ZM141.609 179.676C142.352 179.676 143.009 179.513 143.582 179.188C144.168 178.862 144.682 178.452 145.125 177.957C145.581 177.449 145.965 176.896 146.277 176.297C146.59 175.685 146.844 175.092 147.039 174.52C147.234 173.947 147.378 173.432 147.469 172.977C147.56 172.521 147.605 172.195 147.605 172C147.605 171.857 147.566 171.733 147.488 171.629C147.41 171.512 147.293 171.421 147.137 171.355C146.785 171.264 146.421 171.186 146.043 171.121C145.665 171.043 145.294 170.978 144.93 170.926C144.565 170.874 144.214 170.835 143.875 170.809C143.549 170.783 143.25 170.77 142.977 170.77C142.195 170.77 141.486 170.887 140.848 171.121C140.21 171.355 139.663 171.688 139.207 172.117C138.764 172.547 138.419 173.061 138.172 173.66C137.924 174.246 137.801 174.891 137.801 175.594C137.801 176.219 137.892 176.785 138.074 177.293C138.27 177.788 138.53 178.211 138.855 178.562C139.194 178.914 139.598 179.188 140.066 179.383C140.535 179.578 141.049 179.676 141.609 179.676ZM165.73 182.527C164.949 182.527 164.168 182.339 163.387 181.961C162.605 181.57 161.857 181.043 161.141 180.379C160.424 179.715 159.76 178.934 159.148 178.035C158.536 177.124 158.003 176.147 157.547 175.105C157.091 174.051 156.733 172.951 156.473 171.805C156.212 170.659 156.082 169.513 156.082 168.367C156.082 167.482 156.264 166.85 156.629 166.473C156.993 166.082 157.586 165.887 158.406 165.887C159.435 165.887 160.008 166.31 160.125 167.156C160.359 168.953 160.685 170.574 161.102 172.02C161.518 173.465 162.007 174.695 162.566 175.711C163.139 176.727 163.771 177.508 164.461 178.055C165.164 178.602 165.906 178.875 166.688 178.875C167.247 178.875 167.775 178.738 168.27 178.465C168.764 178.178 169.194 177.781 169.559 177.273C169.689 177.078 169.773 176.889 169.812 176.707C169.865 176.525 169.904 176.316 169.93 176.082C169.995 175.158 170.066 174.253 170.145 173.367C170.236 172.469 170.32 171.57 170.398 170.672C170.424 170.281 170.477 169.962 170.555 169.715C170.633 169.467 170.75 169.272 170.906 169.129C171.062 168.986 171.264 168.888 171.512 168.836C171.772 168.784 172.098 168.758 172.488 168.758C172.931 168.758 173.309 168.823 173.621 168.953C173.934 169.07 174.188 169.272 174.383 169.559C174.578 169.832 174.715 170.197 174.793 170.652C174.884 171.095 174.93 171.648 174.93 172.312C174.93 172.885 174.884 173.387 174.793 173.816C174.715 174.233 174.617 174.63 174.5 175.008C174.396 175.372 174.292 175.737 174.188 176.102C174.096 176.453 174.038 176.844 174.012 177.273C173.947 178.354 173.888 179.292 173.836 180.086C173.784 180.867 173.738 181.538 173.699 182.098C173.673 182.658 173.647 183.139 173.621 183.543C173.608 183.947 173.595 184.305 173.582 184.617C173.569 184.943 173.562 185.249 173.562 185.535C173.562 185.822 173.562 186.134 173.562 186.473C173.562 187.085 173.589 187.749 173.641 188.465C173.693 189.194 173.745 189.891 173.797 190.555C173.862 191.219 173.921 191.805 173.973 192.312C174.025 192.82 174.051 193.172 174.051 193.367C174.051 193.615 173.973 193.849 173.816 194.07C173.66 194.292 173.452 194.487 173.191 194.656C172.931 194.826 172.625 194.956 172.273 195.047C171.922 195.151 171.551 195.203 171.16 195.203C170.822 195.203 170.548 195.086 170.34 194.852C170.145 194.63 170.034 194.331 170.008 193.953C169.969 193.458 169.936 192.853 169.91 192.137C169.884 191.434 169.858 190.678 169.832 189.871C169.806 189.077 169.786 188.263 169.773 187.43C169.773 186.609 169.767 185.841 169.754 185.125C169.741 184.422 169.734 183.803 169.734 183.27C169.734 182.736 169.734 182.352 169.734 182.117C169.734 181.883 169.708 181.72 169.656 181.629C169.604 181.525 169.507 181.473 169.363 181.473C169.285 181.473 169.181 181.499 169.051 181.551C168.921 181.59 168.771 181.661 168.602 181.766C168.146 182.039 167.684 182.234 167.215 182.352C166.746 182.469 166.251 182.527 165.73 182.527ZM188.582 159.441C188.582 158.751 188.777 158.27 189.168 157.996C189.559 157.71 190.203 157.566 191.102 157.566C191.427 157.566 191.701 157.599 191.922 157.664C192.156 157.716 192.352 157.82 192.508 157.977C192.677 158.133 192.807 158.341 192.898 158.602C193.003 158.849 193.087 159.168 193.152 159.559C193.309 160.77 193.478 162.02 193.66 163.309C193.855 164.598 194.057 165.893 194.266 167.195C194.344 167.781 194.65 168.074 195.184 168.074C195.327 168.074 195.561 168.061 195.887 168.035C196.225 167.996 196.622 167.957 197.078 167.918C197.534 167.866 198.022 167.814 198.543 167.762C199.077 167.71 199.604 167.664 200.125 167.625C200.659 167.573 201.16 167.534 201.629 167.508C202.111 167.469 202.534 167.449 202.898 167.449C203.185 167.449 203.413 167.508 203.582 167.625C203.751 167.729 203.882 167.872 203.973 168.055C204.077 168.224 204.142 168.419 204.168 168.641C204.207 168.849 204.227 169.064 204.227 169.285C204.227 169.48 204.188 169.682 204.109 169.891C204.044 170.099 203.947 170.288 203.816 170.457C203.699 170.613 203.549 170.743 203.367 170.848C203.185 170.952 202.977 171.004 202.742 171.004C201.609 171.004 200.464 171.043 199.305 171.121C198.159 171.186 197.013 171.277 195.867 171.395C195.281 171.473 194.988 171.766 194.988 172.273C194.988 172.312 194.995 172.365 195.008 172.43C195.021 172.482 195.027 172.527 195.027 172.566C195.184 173.699 195.327 174.76 195.457 175.75C195.6 176.74 195.717 177.625 195.809 178.406C195.913 179.174 195.991 179.819 196.043 180.34C196.108 180.848 196.141 181.186 196.141 181.355C196.141 181.824 196.095 182.215 196.004 182.527C195.913 182.853 195.763 183.113 195.555 183.309C195.346 183.517 195.066 183.66 194.715 183.738C194.376 183.829 193.947 183.875 193.426 183.875C192.931 183.875 192.566 183.758 192.332 183.523C192.098 183.289 191.967 182.931 191.941 182.449C191.863 180.913 191.74 179.37 191.57 177.82C191.401 176.258 191.206 174.702 190.984 173.152C190.867 172.592 190.574 172.312 190.105 172.312C190.066 172.312 190.021 172.319 189.969 172.332C189.917 172.345 189.871 172.352 189.832 172.352C189.025 172.534 188.263 172.716 187.547 172.898C186.831 173.081 186.16 173.276 185.535 173.484C185.184 173.602 184.871 173.686 184.598 173.738C184.324 173.777 184.077 173.797 183.855 173.797C183.556 173.797 183.335 173.667 183.191 173.406C183.048 173.133 182.977 172.794 182.977 172.391C182.977 172.247 182.99 172.085 183.016 171.902C183.042 171.707 183.094 171.518 183.172 171.336C183.237 171.141 183.341 170.965 183.484 170.809C183.615 170.639 183.797 170.503 184.031 170.398C184.578 170.177 185.307 169.949 186.219 169.715C187.13 169.467 188.159 169.24 189.305 169.031C189.565 168.966 189.767 168.862 189.91 168.719C190.066 168.562 190.145 168.335 190.145 168.035C190.145 167.97 190.145 167.905 190.145 167.84C190.145 167.762 190.132 167.684 190.105 167.605C189.897 166.408 189.695 165.32 189.5 164.344C189.318 163.354 189.155 162.508 189.012 161.805C188.882 161.102 188.777 160.548 188.699 160.145C188.621 159.741 188.582 159.507 188.582 159.441ZM203.348 175.516C203.348 175.294 203.374 175.047 203.426 174.773C203.478 174.5 203.504 174.201 203.504 173.875C203.504 173.654 203.406 173.484 203.211 173.367C203.029 173.25 202.82 173.12 202.586 172.977C202.352 172.833 202.137 172.651 201.941 172.43C201.759 172.208 201.668 171.889 201.668 171.473C201.668 171.173 201.746 170.874 201.902 170.574C202.072 170.275 202.312 170.001 202.625 169.754C203.393 169.181 204.188 168.667 205.008 168.211C205.841 167.755 206.668 167.371 207.488 167.059C208.322 166.746 209.142 166.505 209.949 166.336C210.757 166.167 211.531 166.082 212.273 166.082C213.523 166.082 214.695 166.316 215.789 166.785C216.896 167.241 217.853 167.872 218.66 168.68C219.48 169.474 220.125 170.411 220.594 171.492C221.076 172.56 221.316 173.706 221.316 174.93C221.316 176.128 221.062 177.267 220.555 178.348C220.06 179.415 219.389 180.353 218.543 181.16C217.697 181.967 216.701 182.605 215.555 183.074C214.422 183.556 213.224 183.797 211.961 183.797C210.724 183.797 209.578 183.589 208.523 183.172C207.469 182.755 206.557 182.182 205.789 181.453C205.021 180.711 204.422 179.839 203.992 178.836C203.562 177.82 203.348 176.714 203.348 175.516ZM212.391 180.281C212.938 180.281 213.504 180.171 214.09 179.949C214.676 179.728 215.21 179.409 215.691 178.992C216.186 178.562 216.59 178.042 216.902 177.43C217.228 176.818 217.391 176.128 217.391 175.359C217.391 174.578 217.247 173.849 216.961 173.172C216.674 172.495 216.277 171.909 215.77 171.414C215.275 170.906 214.682 170.509 213.992 170.223C213.315 169.936 212.579 169.793 211.785 169.793C210.34 169.793 209.233 170.171 208.465 170.926C207.697 171.668 207.312 172.814 207.312 174.363C207.312 175.21 207.436 175.997 207.684 176.727C207.944 177.443 208.302 178.068 208.758 178.602C209.214 179.122 209.747 179.533 210.359 179.832C210.984 180.132 211.661 180.281 212.391 180.281ZM234.148 177.488C233.901 174.441 233.615 171.414 233.289 168.406C232.977 165.398 232.514 162.397 231.902 159.402C231.876 159.298 231.863 159.207 231.863 159.129C231.863 159.038 231.863 158.953 231.863 158.875C231.863 158.576 231.922 158.315 232.039 158.094C232.169 157.872 232.339 157.69 232.547 157.547C232.755 157.391 232.99 157.273 233.25 157.195C233.523 157.117 233.81 157.078 234.109 157.078C234.904 157.078 235.451 157.449 235.75 158.191C235.88 158.569 236.01 159.109 236.141 159.812C236.284 160.516 236.427 161.329 236.57 162.254C236.727 163.178 236.876 164.194 237.02 165.301C237.163 166.395 237.299 167.521 237.43 168.68C237.469 169.005 237.573 169.168 237.742 169.168C237.885 169.168 238.035 169.07 238.191 168.875C240.092 166.375 242.345 165.125 244.949 165.125C245.926 165.125 246.837 165.34 247.684 165.77C248.53 166.199 249.266 166.785 249.891 167.527C250.516 168.27 251.004 169.148 251.355 170.164C251.72 171.18 251.902 172.273 251.902 173.445C251.902 174.539 251.727 175.555 251.375 176.492C251.036 177.43 250.561 178.237 249.949 178.914C249.337 179.591 248.608 180.125 247.762 180.516C246.928 180.893 246.017 181.082 245.027 181.082C243.803 181.082 242.605 180.848 241.434 180.379C240.262 179.897 239.155 179.253 238.113 178.445C237.996 178.341 237.872 178.289 237.742 178.289C237.573 178.289 237.417 178.38 237.273 178.562C237.065 178.797 236.844 178.953 236.609 179.031C236.375 179.096 236.089 179.129 235.75 179.129C234.721 179.129 234.188 178.582 234.148 177.488ZM244.266 168.758C243.745 168.758 243.224 168.882 242.703 169.129C242.195 169.363 241.714 169.702 241.258 170.145C240.802 170.587 240.379 171.121 239.988 171.746C239.611 172.358 239.292 173.042 239.031 173.797C239.005 173.836 238.986 173.895 238.973 173.973C238.96 174.051 238.953 174.116 238.953 174.168C238.953 174.389 239.031 174.559 239.188 174.676C239.656 175.079 240.138 175.457 240.633 175.809C241.141 176.16 241.642 176.466 242.137 176.727C242.632 176.987 243.12 177.195 243.602 177.352C244.083 177.495 244.533 177.566 244.949 177.566C245.887 177.566 246.596 177.293 247.078 176.746C247.573 176.199 247.82 175.405 247.82 174.363C247.82 173.556 247.729 172.814 247.547 172.137C247.365 171.447 247.117 170.854 246.805 170.359C246.492 169.852 246.115 169.461 245.672 169.188C245.242 168.901 244.773 168.758 244.266 168.758ZM271.121 177.723C271.499 177.397 271.87 177.234 272.234 177.234C272.443 177.234 272.632 177.286 272.801 177.391C272.97 177.495 273.159 177.658 273.367 177.879C273.562 178.178 273.699 178.426 273.777 178.621C273.868 178.803 273.914 178.986 273.914 179.168C273.914 179.559 273.719 179.93 273.328 180.281C272.703 180.802 272.026 181.271 271.297 181.688C270.568 182.091 269.806 182.436 269.012 182.723C268.217 183.009 267.397 183.224 266.551 183.367C265.704 183.523 264.865 183.602 264.031 183.602C262.977 183.602 261.987 183.465 261.062 183.191C260.138 182.931 259.311 182.553 258.582 182.059C257.866 181.564 257.26 180.971 256.766 180.281C256.271 179.578 255.919 178.79 255.711 177.918C255.594 177.553 255.483 177.319 255.379 177.215C255.288 177.098 255.132 177.039 254.91 177.039C254.428 177.039 254.057 176.922 253.797 176.688C253.536 176.453 253.406 176.115 253.406 175.672C253.406 175.49 253.419 175.372 253.445 175.32L253.484 174.93C253.549 174.461 253.673 174.122 253.855 173.914C254.051 173.706 254.35 173.602 254.754 173.602H255.047C255.594 173.602 255.978 173.348 256.199 172.84C256.603 171.941 257.117 171.121 257.742 170.379C258.367 169.637 259.07 169.005 259.852 168.484C260.633 167.951 261.466 167.54 262.352 167.254C263.25 166.954 264.161 166.805 265.086 166.805C266.049 166.805 266.948 166.948 267.781 167.234C268.628 167.508 269.363 167.892 269.988 168.387C270.613 168.882 271.102 169.461 271.453 170.125C271.818 170.789 272 171.505 272 172.273C272 172.807 271.896 173.296 271.688 173.738C271.479 174.181 271.18 174.572 270.789 174.91C270.398 175.236 269.923 175.503 269.363 175.711C268.816 175.919 268.191 176.056 267.488 176.121L260.711 176.805C260.451 176.805 260.236 176.87 260.066 177C259.91 177.13 259.832 177.306 259.832 177.527C259.832 177.866 259.956 178.191 260.203 178.504C260.464 178.816 260.802 179.096 261.219 179.344C261.648 179.578 262.137 179.767 262.684 179.91C263.243 180.053 263.816 180.125 264.402 180.125C264.962 180.125 265.535 180.073 266.121 179.969C266.72 179.852 267.306 179.689 267.879 179.48C268.465 179.272 269.031 179.025 269.578 178.738C270.125 178.439 270.639 178.1 271.121 177.723ZM266.766 172.684C266.961 172.645 267.13 172.553 267.273 172.41C267.417 172.254 267.488 172.065 267.488 171.844C267.488 171.648 267.417 171.466 267.273 171.297C267.13 171.128 266.935 170.978 266.688 170.848C266.44 170.704 266.154 170.594 265.828 170.516C265.503 170.438 265.158 170.398 264.793 170.398C264.259 170.398 263.712 170.477 263.152 170.633C262.592 170.789 262.085 170.997 261.629 171.258C261.173 171.505 260.802 171.785 260.516 172.098C260.229 172.397 260.086 172.697 260.086 172.996C260.086 173.296 260.268 173.445 260.633 173.445C260.854 173.445 261.212 173.419 261.707 173.367C262.202 173.315 262.749 173.257 263.348 173.191C263.947 173.113 264.552 173.029 265.164 172.938C265.776 172.846 266.31 172.762 266.766 172.684ZM105.32 224.723C105.698 224.397 106.069 224.234 106.434 224.234C106.642 224.234 106.831 224.286 107 224.391C107.169 224.495 107.358 224.658 107.566 224.879C107.762 225.178 107.898 225.426 107.977 225.621C108.068 225.803 108.113 225.986 108.113 226.168C108.113 226.559 107.918 226.93 107.527 227.281C106.902 227.802 106.225 228.271 105.496 228.688C104.767 229.091 104.005 229.436 103.211 229.723C102.417 230.009 101.596 230.224 100.75 230.367C99.9036 230.523 99.0638 230.602 98.2305 230.602C97.1758 230.602 96.1862 230.465 95.2617 230.191C94.3372 229.931 93.5104 229.553 92.7812 229.059C92.0651 228.564 91.4596 227.971 90.9648 227.281C90.4701 226.578 90.1185 225.79 89.9102 224.918C89.793 224.553 89.6823 224.319 89.5781 224.215C89.487 224.098 89.3307 224.039 89.1094 224.039C88.6276 224.039 88.2565 223.922 87.9961 223.688C87.7357 223.453 87.6055 223.115 87.6055 222.672C87.6055 222.49 87.6185 222.372 87.6445 222.32L87.6836 221.93C87.7487 221.461 87.8724 221.122 88.0547 220.914C88.25 220.706 88.5495 220.602 88.9531 220.602H89.2461C89.793 220.602 90.1771 220.348 90.3984 219.84C90.8021 218.941 91.3164 218.121 91.9414 217.379C92.5664 216.637 93.2695 216.005 94.0508 215.484C94.832 214.951 95.6654 214.54 96.5508 214.254C97.4492 213.954 98.3607 213.805 99.2852 213.805C100.249 213.805 101.147 213.948 101.98 214.234C102.827 214.508 103.562 214.892 104.188 215.387C104.812 215.882 105.301 216.461 105.652 217.125C106.017 217.789 106.199 218.505 106.199 219.273C106.199 219.807 106.095 220.296 105.887 220.738C105.678 221.181 105.379 221.572 104.988 221.91C104.598 222.236 104.122 222.503 103.562 222.711C103.016 222.919 102.391 223.056 101.688 223.121L94.9102 223.805C94.6497 223.805 94.4349 223.87 94.2656 224C94.1094 224.13 94.0312 224.306 94.0312 224.527C94.0312 224.866 94.1549 225.191 94.4023 225.504C94.6628 225.816 95.0013 226.096 95.418 226.344C95.8477 226.578 96.3359 226.767 96.8828 226.91C97.4427 227.053 98.0156 227.125 98.6016 227.125C99.1615 227.125 99.7344 227.073 100.32 226.969C100.919 226.852 101.505 226.689 102.078 226.48C102.664 226.272 103.23 226.025 103.777 225.738C104.324 225.439 104.839 225.1 105.32 224.723ZM100.965 219.684C101.16 219.645 101.329 219.553 101.473 219.41C101.616 219.254 101.688 219.065 101.688 218.844C101.688 218.648 101.616 218.466 101.473 218.297C101.329 218.128 101.134 217.978 100.887 217.848C100.639 217.704 100.353 217.594 100.027 217.516C99.7018 217.438 99.3568 217.398 98.9922 217.398C98.4583 217.398 97.9115 217.477 97.3516 217.633C96.7917 217.789 96.2839 217.997 95.8281 218.258C95.3724 218.505 95.0013 218.785 94.7148 219.098C94.4284 219.397 94.2852 219.697 94.2852 219.996C94.2852 220.296 94.4674 220.445 94.832 220.445C95.0534 220.445 95.4115 220.419 95.9062 220.367C96.401 220.315 96.9479 220.257 97.5469 220.191C98.1458 220.113 98.7513 220.029 99.3633 219.938C99.9753 219.846 100.509 219.762 100.965 219.684ZM109.91 212.516C109.741 212.242 109.63 212.014 109.578 211.832C109.526 211.637 109.5 211.48 109.5 211.363C109.5 211.142 109.598 210.914 109.793 210.68C109.988 210.445 110.229 210.237 110.516 210.055C110.802 209.859 111.108 209.703 111.434 209.586C111.759 209.456 112.046 209.391 112.293 209.391C112.436 209.391 112.586 209.449 112.742 209.566C112.911 209.671 113.139 209.951 113.426 210.406C113.882 211.148 114.357 211.917 114.852 212.711C115.359 213.505 115.893 214.306 116.453 215.113C116.674 215.413 116.902 215.562 117.137 215.562C117.397 215.562 117.638 215.426 117.859 215.152C118.745 214.176 119.637 213.271 120.535 212.438C121.434 211.604 122.332 210.927 123.23 210.406C123.777 210.081 124.227 209.866 124.578 209.762C124.93 209.658 125.184 209.605 125.34 209.605C125.587 209.605 125.841 209.684 126.102 209.84C126.362 209.996 126.596 210.191 126.805 210.426C127.026 210.647 127.202 210.882 127.332 211.129C127.475 211.376 127.547 211.598 127.547 211.793C127.547 212.092 127.358 212.385 126.98 212.672C126.616 212.958 126.082 213.31 125.379 213.727C124.402 214.326 123.471 215.029 122.586 215.836C121.714 216.643 120.874 217.496 120.066 218.395C119.936 218.525 119.845 218.648 119.793 218.766C119.754 218.883 119.734 219 119.734 219.117C119.734 219.221 119.754 219.332 119.793 219.449C119.845 219.566 119.923 219.684 120.027 219.801C120.509 220.361 120.991 220.875 121.473 221.344C121.954 221.812 122.417 222.216 122.859 222.555C123.315 222.88 123.751 223.141 124.168 223.336C124.598 223.518 125.001 223.609 125.379 223.609C125.678 223.609 125.997 223.57 126.336 223.492C126.674 223.401 126.98 223.355 127.254 223.355C127.632 223.355 127.892 223.473 128.035 223.707C128.191 223.928 128.27 224.228 128.27 224.605C128.27 225.035 128.191 225.419 128.035 225.758C127.879 226.096 127.664 226.383 127.391 226.617C127.13 226.839 126.818 227.014 126.453 227.145C126.089 227.262 125.704 227.32 125.301 227.32C124.676 227.32 124.038 227.21 123.387 226.988C122.736 226.767 122.085 226.461 121.434 226.07C120.783 225.68 120.138 225.224 119.5 224.703C118.862 224.169 118.237 223.59 117.625 222.965C117.391 222.717 117.15 222.594 116.902 222.594C116.642 222.594 116.401 222.73 116.18 223.004C115.568 223.759 114.975 224.469 114.402 225.133C113.842 225.797 113.296 226.376 112.762 226.871C112.241 227.366 111.733 227.757 111.238 228.043C110.757 228.329 110.281 228.473 109.812 228.473C109.474 228.473 109.174 228.408 108.914 228.277C108.667 228.134 108.458 227.965 108.289 227.77C108.12 227.574 107.99 227.372 107.898 227.164C107.82 226.956 107.781 226.78 107.781 226.637C107.781 226.454 107.846 226.285 107.977 226.129C108.107 225.96 108.296 225.777 108.543 225.582C108.79 225.374 109.077 225.126 109.402 224.84C109.741 224.553 110.118 224.195 110.535 223.766C110.991 223.31 111.492 222.75 112.039 222.086C112.586 221.409 113.178 220.686 113.816 219.918C113.882 219.84 113.934 219.755 113.973 219.664C114.012 219.56 114.031 219.456 114.031 219.352C114.031 218.987 113.829 218.525 113.426 217.965C112.618 216.858 111.915 215.823 111.316 214.859C110.717 213.883 110.249 213.102 109.91 212.516ZM147.039 224.723C147.417 224.397 147.788 224.234 148.152 224.234C148.361 224.234 148.549 224.286 148.719 224.391C148.888 224.495 149.077 224.658 149.285 224.879C149.48 225.178 149.617 225.426 149.695 225.621C149.786 225.803 149.832 225.986 149.832 226.168C149.832 226.559 149.637 226.93 149.246 227.281C148.621 227.802 147.944 228.271 147.215 228.688C146.486 229.091 145.724 229.436 144.93 229.723C144.135 230.009 143.315 230.224 142.469 230.367C141.622 230.523 140.783 230.602 139.949 230.602C138.895 230.602 137.905 230.465 136.98 230.191C136.056 229.931 135.229 229.553 134.5 229.059C133.784 228.564 133.178 227.971 132.684 227.281C132.189 226.578 131.837 225.79 131.629 224.918C131.512 224.553 131.401 224.319 131.297 224.215C131.206 224.098 131.049 224.039 130.828 224.039C130.346 224.039 129.975 223.922 129.715 223.688C129.454 223.453 129.324 223.115 129.324 222.672C129.324 222.49 129.337 222.372 129.363 222.32L129.402 221.93C129.467 221.461 129.591 221.122 129.773 220.914C129.969 220.706 130.268 220.602 130.672 220.602H130.965C131.512 220.602 131.896 220.348 132.117 219.84C132.521 218.941 133.035 218.121 133.66 217.379C134.285 216.637 134.988 216.005 135.77 215.484C136.551 214.951 137.384 214.54 138.27 214.254C139.168 213.954 140.079 213.805 141.004 213.805C141.967 213.805 142.866 213.948 143.699 214.234C144.546 214.508 145.281 214.892 145.906 215.387C146.531 215.882 147.02 216.461 147.371 217.125C147.736 217.789 147.918 218.505 147.918 219.273C147.918 219.807 147.814 220.296 147.605 220.738C147.397 221.181 147.098 221.572 146.707 221.91C146.316 222.236 145.841 222.503 145.281 222.711C144.734 222.919 144.109 223.056 143.406 223.121L136.629 223.805C136.368 223.805 136.154 223.87 135.984 224C135.828 224.13 135.75 224.306 135.75 224.527C135.75 224.866 135.874 225.191 136.121 225.504C136.382 225.816 136.72 226.096 137.137 226.344C137.566 226.578 138.055 226.767 138.602 226.91C139.161 227.053 139.734 227.125 140.32 227.125C140.88 227.125 141.453 227.073 142.039 226.969C142.638 226.852 143.224 226.689 143.797 226.48C144.383 226.272 144.949 226.025 145.496 225.738C146.043 225.439 146.557 225.1 147.039 224.723ZM142.684 219.684C142.879 219.645 143.048 219.553 143.191 219.41C143.335 219.254 143.406 219.065 143.406 218.844C143.406 218.648 143.335 218.466 143.191 218.297C143.048 218.128 142.853 217.978 142.605 217.848C142.358 217.704 142.072 217.594 141.746 217.516C141.421 217.438 141.076 217.398 140.711 217.398C140.177 217.398 139.63 217.477 139.07 217.633C138.51 217.789 138.003 217.997 137.547 218.258C137.091 218.505 136.72 218.785 136.434 219.098C136.147 219.397 136.004 219.697 136.004 219.996C136.004 220.296 136.186 220.445 136.551 220.445C136.772 220.445 137.13 220.419 137.625 220.367C138.12 220.315 138.667 220.257 139.266 220.191C139.865 220.113 140.47 220.029 141.082 219.938C141.694 219.846 142.228 219.762 142.684 219.684ZM157.977 212.887C158.654 212.887 159.311 212.984 159.949 213.18C160.587 213.375 161.147 213.642 161.629 213.98C162.124 214.306 162.521 214.684 162.82 215.113C163.12 215.53 163.27 215.96 163.27 216.402C163.27 216.689 163.211 216.969 163.094 217.242C162.977 217.503 162.82 217.737 162.625 217.945C162.43 218.141 162.208 218.303 161.961 218.434C161.714 218.551 161.453 218.609 161.18 218.609C160.88 218.609 160.607 218.499 160.359 218.277C160.112 218.043 159.845 217.789 159.559 217.516C159.285 217.229 158.973 216.975 158.621 216.754C158.283 216.52 157.872 216.402 157.391 216.402C156.922 216.402 156.499 216.513 156.121 216.734C155.743 216.956 155.424 217.268 155.164 217.672C154.917 218.062 154.721 218.531 154.578 219.078C154.448 219.612 154.383 220.198 154.383 220.836C154.383 222.659 154.728 224.052 155.418 225.016C156.108 225.966 157.098 226.441 158.387 226.441C158.999 226.441 159.52 226.344 159.949 226.148C160.392 225.953 160.776 225.738 161.102 225.504C161.44 225.27 161.746 225.055 162.02 224.859C162.293 224.664 162.573 224.566 162.859 224.566C163.016 224.566 163.172 224.618 163.328 224.723C163.484 224.814 163.621 224.938 163.738 225.094C163.868 225.237 163.973 225.4 164.051 225.582C164.142 225.764 164.188 225.947 164.188 226.129C164.188 226.559 163.973 227.001 163.543 227.457C163.126 227.913 162.586 228.329 161.922 228.707C161.258 229.072 160.516 229.371 159.695 229.605C158.888 229.84 158.1 229.957 157.332 229.957C156.303 229.957 155.359 229.755 154.5 229.352C153.641 228.961 152.898 228.414 152.273 227.711C151.648 226.995 151.16 226.142 150.809 225.152C150.47 224.163 150.301 223.069 150.301 221.871C150.301 220.569 150.49 219.371 150.867 218.277C151.258 217.184 151.792 216.24 152.469 215.445C153.159 214.638 153.973 214.013 154.91 213.57C155.848 213.115 156.87 212.887 157.977 212.887ZM168.777 222.086C168.777 223.831 169.044 225.178 169.578 226.129C170.112 227.079 170.887 227.555 171.902 227.555C172.54 227.555 173.126 227.366 173.66 226.988C174.207 226.611 174.676 226.083 175.066 225.406C175.457 224.729 175.757 223.928 175.965 223.004C176.186 222.066 176.297 221.051 176.297 219.957C176.297 219.293 176.271 218.72 176.219 218.238C176.167 217.743 176.108 217.307 176.043 216.93C175.991 216.539 175.939 216.194 175.887 215.895C175.835 215.595 175.809 215.309 175.809 215.035C175.809 214.618 175.984 214.319 176.336 214.137C176.688 213.941 177.247 213.844 178.016 213.844C178.992 213.844 179.747 214.065 180.281 214.508C180.828 214.951 181.102 215.595 181.102 216.441C181.102 218.746 180.874 220.816 180.418 222.652C179.975 224.488 179.331 226.051 178.484 227.34C177.651 228.616 176.635 229.599 175.438 230.289C174.24 230.979 172.898 231.324 171.414 231.324C170.359 231.324 169.383 231.103 168.484 230.66C167.599 230.23 166.831 229.625 166.18 228.844C165.542 228.049 165.04 227.112 164.676 226.031C164.311 224.938 164.129 223.74 164.129 222.438C164.129 221.943 164.142 221.415 164.168 220.855C164.194 220.296 164.233 219.697 164.285 219.059C164.337 218.408 164.402 217.704 164.48 216.949C164.572 216.194 164.669 215.374 164.773 214.488C164.812 214.111 164.988 213.811 165.301 213.59C165.626 213.355 166.036 213.238 166.531 213.238C166.974 213.238 167.391 213.284 167.781 213.375C168.172 213.466 168.504 213.59 168.777 213.746C169.064 213.902 169.285 214.085 169.441 214.293C169.611 214.501 169.695 214.723 169.695 214.957C169.695 215.191 169.643 215.562 169.539 216.07C169.448 216.565 169.344 217.138 169.227 217.789C169.122 218.427 169.018 219.124 168.914 219.879C168.823 220.621 168.777 221.357 168.777 222.086ZM185.281 206.441C185.281 205.751 185.477 205.27 185.867 204.996C186.258 204.71 186.902 204.566 187.801 204.566C188.126 204.566 188.4 204.599 188.621 204.664C188.855 204.716 189.051 204.82 189.207 204.977C189.376 205.133 189.507 205.341 189.598 205.602C189.702 205.849 189.786 206.168 189.852 206.559C190.008 207.77 190.177 209.02 190.359 210.309C190.555 211.598 190.757 212.893 190.965 214.195C191.043 214.781 191.349 215.074 191.883 215.074C192.026 215.074 192.26 215.061 192.586 215.035C192.924 214.996 193.322 214.957 193.777 214.918C194.233 214.866 194.721 214.814 195.242 214.762C195.776 214.71 196.303 214.664 196.824 214.625C197.358 214.573 197.859 214.534 198.328 214.508C198.81 214.469 199.233 214.449 199.598 214.449C199.884 214.449 200.112 214.508 200.281 214.625C200.451 214.729 200.581 214.872 200.672 215.055C200.776 215.224 200.841 215.419 200.867 215.641C200.906 215.849 200.926 216.064 200.926 216.285C200.926 216.48 200.887 216.682 200.809 216.891C200.743 217.099 200.646 217.288 200.516 217.457C200.398 217.613 200.249 217.743 200.066 217.848C199.884 217.952 199.676 218.004 199.441 218.004C198.309 218.004 197.163 218.043 196.004 218.121C194.858 218.186 193.712 218.277 192.566 218.395C191.98 218.473 191.688 218.766 191.688 219.273C191.688 219.312 191.694 219.365 191.707 219.43C191.72 219.482 191.727 219.527 191.727 219.566C191.883 220.699 192.026 221.76 192.156 222.75C192.299 223.74 192.417 224.625 192.508 225.406C192.612 226.174 192.69 226.819 192.742 227.34C192.807 227.848 192.84 228.186 192.84 228.355C192.84 228.824 192.794 229.215 192.703 229.527C192.612 229.853 192.462 230.113 192.254 230.309C192.046 230.517 191.766 230.66 191.414 230.738C191.076 230.829 190.646 230.875 190.125 230.875C189.63 230.875 189.266 230.758 189.031 230.523C188.797 230.289 188.667 229.931 188.641 229.449C188.562 227.913 188.439 226.37 188.27 224.82C188.1 223.258 187.905 221.702 187.684 220.152C187.566 219.592 187.273 219.312 186.805 219.312C186.766 219.312 186.72 219.319 186.668 219.332C186.616 219.345 186.57 219.352 186.531 219.352C185.724 219.534 184.962 219.716 184.246 219.898C183.53 220.081 182.859 220.276 182.234 220.484C181.883 220.602 181.57 220.686 181.297 220.738C181.023 220.777 180.776 220.797 180.555 220.797C180.255 220.797 180.034 220.667 179.891 220.406C179.747 220.133 179.676 219.794 179.676 219.391C179.676 219.247 179.689 219.085 179.715 218.902C179.741 218.707 179.793 218.518 179.871 218.336C179.936 218.141 180.04 217.965 180.184 217.809C180.314 217.639 180.496 217.503 180.73 217.398C181.277 217.177 182.007 216.949 182.918 216.715C183.829 216.467 184.858 216.24 186.004 216.031C186.264 215.966 186.466 215.862 186.609 215.719C186.766 215.562 186.844 215.335 186.844 215.035C186.844 214.97 186.844 214.905 186.844 214.84C186.844 214.762 186.831 214.684 186.805 214.605C186.596 213.408 186.395 212.32 186.199 211.344C186.017 210.354 185.854 209.508 185.711 208.805C185.581 208.102 185.477 207.548 185.398 207.145C185.32 206.741 185.281 206.507 185.281 206.441ZM216.414 224.723C216.792 224.397 217.163 224.234 217.527 224.234C217.736 224.234 217.924 224.286 218.094 224.391C218.263 224.495 218.452 224.658 218.66 224.879C218.855 225.178 218.992 225.426 219.07 225.621C219.161 225.803 219.207 225.986 219.207 226.168C219.207 226.559 219.012 226.93 218.621 227.281C217.996 227.802 217.319 228.271 216.59 228.688C215.861 229.091 215.099 229.436 214.305 229.723C213.51 230.009 212.69 230.224 211.844 230.367C210.997 230.523 210.158 230.602 209.324 230.602C208.27 230.602 207.28 230.465 206.355 230.191C205.431 229.931 204.604 229.553 203.875 229.059C203.159 228.564 202.553 227.971 202.059 227.281C201.564 226.578 201.212 225.79 201.004 224.918C200.887 224.553 200.776 224.319 200.672 224.215C200.581 224.098 200.424 224.039 200.203 224.039C199.721 224.039 199.35 223.922 199.09 223.688C198.829 223.453 198.699 223.115 198.699 222.672C198.699 222.49 198.712 222.372 198.738 222.32L198.777 221.93C198.842 221.461 198.966 221.122 199.148 220.914C199.344 220.706 199.643 220.602 200.047 220.602H200.34C200.887 220.602 201.271 220.348 201.492 219.84C201.896 218.941 202.41 218.121 203.035 217.379C203.66 216.637 204.363 216.005 205.145 215.484C205.926 214.951 206.759 214.54 207.645 214.254C208.543 213.954 209.454 213.805 210.379 213.805C211.342 213.805 212.241 213.948 213.074 214.234C213.921 214.508 214.656 214.892 215.281 215.387C215.906 215.882 216.395 216.461 216.746 217.125C217.111 217.789 217.293 218.505 217.293 219.273C217.293 219.807 217.189 220.296 216.98 220.738C216.772 221.181 216.473 221.572 216.082 221.91C215.691 222.236 215.216 222.503 214.656 222.711C214.109 222.919 213.484 223.056 212.781 223.121L206.004 223.805C205.743 223.805 205.529 223.87 205.359 224C205.203 224.13 205.125 224.306 205.125 224.527C205.125 224.866 205.249 225.191 205.496 225.504C205.757 225.816 206.095 226.096 206.512 226.344C206.941 226.578 207.43 226.767 207.977 226.91C208.536 227.053 209.109 227.125 209.695 227.125C210.255 227.125 210.828 227.073 211.414 226.969C212.013 226.852 212.599 226.689 213.172 226.48C213.758 226.272 214.324 226.025 214.871 225.738C215.418 225.439 215.932 225.1 216.414 224.723ZM212.059 219.684C212.254 219.645 212.423 219.553 212.566 219.41C212.71 219.254 212.781 219.065 212.781 218.844C212.781 218.648 212.71 218.466 212.566 218.297C212.423 218.128 212.228 217.978 211.98 217.848C211.733 217.704 211.447 217.594 211.121 217.516C210.796 217.438 210.451 217.398 210.086 217.398C209.552 217.398 209.005 217.477 208.445 217.633C207.885 217.789 207.378 217.997 206.922 218.258C206.466 218.505 206.095 218.785 205.809 219.098C205.522 219.397 205.379 219.697 205.379 219.996C205.379 220.296 205.561 220.445 205.926 220.445C206.147 220.445 206.505 220.419 207 220.367C207.495 220.315 208.042 220.257 208.641 220.191C209.24 220.113 209.845 220.029 210.457 219.938C211.069 219.846 211.603 219.762 212.059 219.684ZM233.523 214.723C233.576 214.749 233.654 214.762 233.758 214.762C234.044 214.762 234.188 214.573 234.188 214.195V208.121C234.188 207.353 234.357 206.806 234.695 206.48C235.047 206.155 235.626 205.992 236.434 205.992C237.254 205.992 237.833 206.161 238.172 206.5C238.51 206.839 238.68 207.418 238.68 208.238C238.68 208.551 238.66 209.013 238.621 209.625C238.582 210.224 238.536 210.908 238.484 211.676C238.445 212.444 238.406 213.271 238.367 214.156C238.328 215.029 238.309 215.895 238.309 216.754C238.309 218.082 238.4 219.228 238.582 220.191C238.764 221.155 239.025 221.956 239.363 222.594C239.702 223.219 240.105 223.688 240.574 224C241.043 224.299 241.57 224.449 242.156 224.449C242.482 224.449 242.775 224.41 243.035 224.332C243.309 224.241 243.628 224.195 243.992 224.195C244.253 224.195 244.467 224.332 244.637 224.605C244.819 224.866 244.91 225.185 244.91 225.562C244.91 225.901 244.806 226.22 244.598 226.52C244.402 226.819 244.129 227.079 243.777 227.301C243.439 227.522 243.042 227.698 242.586 227.828C242.13 227.945 241.655 228.004 241.16 228.004C240.092 228.004 239.116 227.678 238.23 227.027C237.345 226.363 236.681 225.354 236.238 224C236.199 223.792 236.134 223.688 236.043 223.688C235.939 223.688 235.854 223.792 235.789 224C235.438 224.951 234.975 225.81 234.402 226.578C233.842 227.333 233.185 227.984 232.43 228.531C231.688 229.065 230.867 229.475 229.969 229.762C229.083 230.048 228.146 230.191 227.156 230.191C226.115 230.191 225.158 230.016 224.285 229.664C223.426 229.326 222.684 228.85 222.059 228.238C221.434 227.613 220.945 226.884 220.594 226.051C220.242 225.204 220.066 224.293 220.066 223.316C220.066 222.066 220.327 220.888 220.848 219.781C221.368 218.674 222.072 217.711 222.957 216.891C223.855 216.057 224.897 215.4 226.082 214.918C227.267 214.436 228.53 214.195 229.871 214.195C230.418 214.195 230.997 214.241 231.609 214.332C232.221 214.41 232.859 214.54 233.523 214.723ZM227.918 226.676C228.66 226.676 229.318 226.513 229.891 226.188C230.477 225.862 230.991 225.452 231.434 224.957C231.889 224.449 232.273 223.896 232.586 223.297C232.898 222.685 233.152 222.092 233.348 221.52C233.543 220.947 233.686 220.432 233.777 219.977C233.868 219.521 233.914 219.195 233.914 219C233.914 218.857 233.875 218.733 233.797 218.629C233.719 218.512 233.602 218.421 233.445 218.355C233.094 218.264 232.729 218.186 232.352 218.121C231.974 218.043 231.603 217.978 231.238 217.926C230.874 217.874 230.522 217.835 230.184 217.809C229.858 217.783 229.559 217.77 229.285 217.77C228.504 217.77 227.794 217.887 227.156 218.121C226.518 218.355 225.971 218.688 225.516 219.117C225.073 219.547 224.728 220.061 224.48 220.66C224.233 221.246 224.109 221.891 224.109 222.594C224.109 223.219 224.201 223.785 224.383 224.293C224.578 224.788 224.839 225.211 225.164 225.562C225.503 225.914 225.906 226.188 226.375 226.383C226.844 226.578 227.358 226.676 227.918 226.676ZM253.094 206.598C253.042 206.415 252.996 206.253 252.957 206.109C252.931 205.966 252.918 205.823 252.918 205.68C252.918 205.315 253.029 205.009 253.25 204.762C253.484 204.514 253.829 204.391 254.285 204.391C256.303 204.391 257.41 204.872 257.605 205.836C257.84 207.06 258.055 208.29 258.25 209.527C258.445 210.764 258.615 212.021 258.758 213.297C258.914 214.56 259.031 215.849 259.109 217.164C259.201 218.466 259.246 219.801 259.246 221.168C259.246 221.428 259.233 221.682 259.207 221.93C259.181 222.164 259.129 222.379 259.051 222.574C258.973 222.757 258.862 222.906 258.719 223.023C258.589 223.141 258.406 223.199 258.172 223.199L256.531 222.965C256.193 222.926 255.952 222.828 255.809 222.672C255.678 222.503 255.6 222.268 255.574 221.969C255.47 219.586 255.21 217.092 254.793 214.488C254.376 211.884 253.81 209.254 253.094 206.598ZM257.117 230.641C256.74 230.641 256.382 230.582 256.043 230.465C255.717 230.361 255.431 230.204 255.184 229.996C254.949 229.801 254.76 229.566 254.617 229.293C254.474 229.02 254.402 228.72 254.402 228.395C254.402 227.848 254.617 227.405 255.047 227.066C255.49 226.728 256.076 226.559 256.805 226.559C257.143 226.559 257.469 226.624 257.781 226.754C258.094 226.871 258.367 227.034 258.602 227.242C258.849 227.451 259.044 227.698 259.188 227.984C259.331 228.258 259.402 228.544 259.402 228.844C259.402 229.404 259.194 229.84 258.777 230.152C258.374 230.478 257.82 230.641 257.117 230.641Z" fill="white"/>
</g>
<defs>
<filter id="filter0_d_5_38" x="35.7047" y="81.3961" width="275.423" height="187.528" filterUnits="userSpaceOnUse" color-interpolation-filters="sRGB">
<feFlood flood-opacity="0" result="BackgroundImageFix"/>
<feColorMatrix in="SourceAlpha" type="matrix" values="0 0 0 0 0 0 0 0 0 0 0 0 0 0 0 0 0 0 127 0" result="hardAlpha"/>
<feOffset dy="4"/>
<feGaussianBlur stdDeviation="16.8"/>
<feComposite in2="hardAlpha" operator="out"/>
<feColorMatrix type="matrix" values="0 0 0 0 1 0 0 0 0 1 0 0 0 0 1 0 0 0 0.25 0"/>
<feBlend mode="normal" in2="BackgroundImageFix" result="effect1_dropShadow_5_38"/>
<feBlend mode="normal" in="SourceGraphic" in2="effect1_dropShadow_5_38" result="shape"/>
</filter>
</defs>
</svg>
