<?xml version="1.0" standalone="no"?>
<!DOCTYPE svg PUBLIC "-//W3C//DTD SVG 20010904//EN"
 "http://www.w3.org/TR/2001/REC-SVG-20010904/DTD/svg10.dtd">
<svg version="1.0" xmlns="http://www.w3.org/2000/svg"
 width="935.000000pt" height="300.000000pt" viewBox="0 0 935.000000 300.000000"
 preserveAspectRatio="xMidYMid meet">

<g transform="translate(0.000000,300.000000) scale(0.100000,-0.100000)"
fill="#000000" stroke="none">
<path d="M1440 2979 c-617 -45 -1165 -460 -1355 -1024 -60 -178 -68 -235 -68
-455 0 -175 3 -218 20 -290 80 -325 203 -544 426 -757 205 -196 439 -325 709
-392 282 -70 536 -67 848 9 55 13 88 25 184 65 495 206 848 646 921 1150 32
218 12 451 -54 653 -194 589 -731 995 -1381 1042 -69 5 -129 9 -135 8 -5 0
-57 -4 -115 -9z m-533 -944 c74 -10 131 -25 205 -55 156 -63 212 -101 353
-240 l91 -89 63 70 c151 167 332 268 576 323 216 49 477 -25 600 -169 65 -76
62 -85 -31 -85 -75 0 -159 -15 -181 -32 -8 -6 -10 -37 -6 -103 8 -137 -18
-283 -72 -401 -87 -189 -188 -284 -344 -328 -94 -26 -197 -3 -305 69 l-66 45
-26 -41 c-28 -45 -134 -253 -134 -263 0 -3 -11 -29 -24 -56 -14 -28 -27 -64
-31 -80 -16 -71 -52 -59 -75 25 -7 28 -16 55 -20 60 -4 6 -17 35 -29 65 -46
110 -126 260 -138 260 -8 0 -32 -12 -56 -27 -102 -64 -201 -83 -297 -56 -131
38 -236 132 -305 273 -20 41 -41 83 -46 93 -22 41 -51 262 -46 350 5 82 4 88
-16 102 -36 23 -157 47 -219 43 -70 -5 -73 5 -21 64 47 53 76 77 122 103 20
11 47 28 61 37 31 21 140 47 200 49 25 0 54 4 65 9 11 5 27 6 35 3 8 -2 61
-11 117 -18z"/>
<path d="M2259 1579 c-30 -23 -105 -93 -168 -155 -125 -124 -126 -129 -51
-154 73 -24 165 18 223 103 36 53 55 107 64 185 8 65 -6 69 -68 21z"/>
<path d="M808 1585 c-6 -7 5 -61 28 -143 31 -105 157 -197 242 -176 21 5 38
16 40 25 3 18 -169 199 -249 263 -48 37 -52 40 -61 31z"/>
<path d="M5993 1938 c-53 -26 -68 -122 -24 -162 65 -59 181 -17 181 65 0 83
-82 133 -157 97z"/>
<path d="M6330 1420 l0 -530 85 0 85 0 0 530 0 530 -85 0 -85 0 0 -530z"/>
<path d="M6733 1938 c-53 -26 -68 -122 -24 -162 65 -59 181 -17 181 65 0 83
-82 133 -157 97z"/>
<path d="M7950 1420 l0 -530 85 0 85 0 0 237 c0 216 2 240 20 278 27 56 80 85
154 85 50 0 60 -4 91 -32 48 -45 55 -92 55 -354 l0 -214 81 0 80 0 -3 283 -3
282 -29 52 c-48 87 -120 125 -236 126 -82 0 -127 -15 -179 -59 l-31 -26 0 201
0 201 -85 0 -85 0 0 -530z"/>
<path d="M3990 1810 l0 -80 145 0 145 0 0 -420 0 -420 85 0 85 0 0 420 0 420
145 0 145 0 0 80 0 80 -375 0 -375 0 0 -80z"/>
<path d="M8830 1715 l0 -95 -55 0 -55 0 0 -65 0 -65 55 0 55 0 0 -217 c0 -121
5 -235 11 -256 14 -52 60 -101 107 -115 22 -7 71 -12 111 -12 l71 0 0 76 c0
71 -1 75 -20 69 -11 -4 -34 -4 -50 0 -59 13 -60 17 -60 246 l0 209 65 0 65 0
0 65 0 65 -65 0 -65 0 0 95 0 95 -85 0 -85 0 0 -95z"/>
<path d="M7292 1629 c-139 -27 -235 -137 -261 -296 -19 -120 14 -240 89 -326
109 -124 317 -142 430 -37 l40 37 0 -75 c0 -140 -56 -202 -181 -202 -75 0
-119 22 -150 75 l-21 35 -79 0 c-89 0 -93 -4 -64 -74 86 -206 428 -247 583
-71 75 85 76 90 80 533 l3 392 -80 0 -81 0 0 -46 0 -46 -45 40 c-69 60 -160
82 -263 61z m176 -155 c118 -49 163 -192 102 -320 -64 -131 -262 -140 -341
-16 -114 181 51 415 239 336z"/>
<path d="M4680 1616 c0 -2 56 -165 125 -362 69 -197 125 -359 125 -361 0 -2
37 -3 82 -1 l81 3 83 245 c71 212 83 242 91 220 6 -14 43 -125 84 -248 l74
-223 80 3 79 3 127 363 126 363 -86 -3 -86 -3 -81 -259 -82 -260 -57 180 c-31
98 -68 216 -83 262 l-26 82 -77 0 -78 0 -71 -222 c-39 -123 -76 -238 -82 -256
-5 -18 -13 -31 -16 -27 -3 3 -41 117 -83 253 l-77 247 -86 3 c-47 1 -86 1 -86
-2z"/>
<path d="M5960 1255 l0 -365 85 0 85 0 0 365 0 365 -85 0 -85 0 0 -365z"/>
<path d="M6700 1255 l0 -365 85 0 85 0 0 365 0 365 -85 0 -85 0 0 -365z"/>
</g>
</svg>
