<svg width="42" height="42" viewBox="0 0 42 42" fill="none" xmlns="http://www.w3.org/2000/svg">
<g clip-path="url(#clip0_368_7760)">
<path d="M35.8502 35.8501C44.0514 27.6489 44.0514 14.3521 35.8502 6.15085C27.649 -2.05039 14.3521 -2.05039 6.15091 6.15085C-2.05032 14.3521 -2.05032 27.6489 6.15091 35.8501C14.3521 44.0514 27.649 44.0514 35.8502 35.8501Z" fill="#BCBABA"/>
<path fill-rule="evenodd" clip-rule="evenodd" d="M10.575 17.2518H14.7487V31.2661H10.575V17.2518ZM12.636 10.1406C13.2964 10.1546 13.9252 10.4267 14.3873 10.8988C14.8495 11.3708 15.1083 12.0051 15.1083 12.6657C15.1083 13.3263 14.8495 13.9606 14.3873 14.4327C13.9252 14.9047 13.2964 15.1769 12.636 15.1908C11.2443 15.1908 10.161 14.0568 10.161 12.6651C10.1557 12.3363 10.2158 12.0098 10.3378 11.7044C10.4597 11.399 10.641 11.1208 10.8712 10.886C11.1014 10.6512 11.376 10.4644 11.6789 10.3364C11.9818 10.2085 12.3071 10.1419 12.636 10.1406ZM17.2215 17.2518H21.3436V19.2093C21.7808 18.5586 22.3717 18.0256 23.064 17.6577C23.7563 17.2898 24.5286 17.0982 25.3126 17.0999H26.4466C27.7021 17.1056 28.9046 17.6069 29.7922 18.4948C30.6799 19.3827 31.1809 20.5852 31.1863 21.8407V31.2694H27.062V29.9779V23.6914C27.0114 22.095 25.9291 20.8575 24.3316 20.8575C22.7341 20.8575 21.3953 22.095 21.3436 23.6914V31.2661H17.2215V17.2518Z" fill="#100F0F"/>
</g>
<defs>
<clipPath id="clip0_368_7760">
<rect width="42" height="42" fill="white"/>
</clipPath>
</defs>
</svg>
