<svg width="26" height="26" viewBox="0 0 26 26" fill="none" xmlns="http://www.w3.org/2000/svg">
<path fill-rule="evenodd" clip-rule="evenodd" d="M7.37336 0.875977H18.6235C20.3686 0.883966 22.0399 1.58075 23.2739 2.81473C24.5079 4.04871 25.2047 5.72006 25.2126 7.46515V18.6624C25.2044 20.4074 24.5075 22.0785 23.2736 23.3125C22.0396 24.5464 20.3685 25.2433 18.6235 25.2515H7.37336C5.62826 25.2436 3.95692 24.5468 2.72293 23.3128C1.48895 22.0788 0.792169 20.4075 0.78418 18.6624V7.46515C0.792169 5.72006 1.48895 4.04871 2.72293 2.81473C3.95692 1.58075 5.62826 0.883966 7.37336 0.875977ZM19.5628 5.13189C19.9324 5.13712 20.2853 5.28625 20.5467 5.54758C20.808 5.80891 20.9571 6.16185 20.9624 6.5314C20.9574 6.90103 20.8084 7.25413 20.547 7.51552C20.2856 7.77692 19.9325 7.92596 19.5628 7.93091C19.3784 7.93333 19.1953 7.89878 19.0244 7.8293C18.8535 7.75983 18.6983 7.65683 18.5679 7.52639C18.4374 7.39595 18.3344 7.2407 18.2649 7.06981C18.1955 6.89892 18.1609 6.71585 18.1633 6.5314C18.1609 6.34694 18.1955 6.16387 18.2649 5.99298C18.3344 5.82209 18.4374 5.66684 18.5679 5.5364C18.6983 5.40596 18.8535 5.30296 19.0244 5.23349C19.1953 5.16401 19.3784 5.12947 19.5628 5.13189ZM12.9737 6.41552H13.0322C16.6468 6.41552 19.6798 9.45304 19.6798 13.0632C19.6798 16.7364 16.6423 19.7109 13.0322 19.7109H12.9737C9.35788 19.7109 6.38448 16.7364 6.38448 13.0632C6.38448 9.44742 9.35788 6.41552 12.9737 6.41552ZM12.9737 8.68916H13.0322C14.1895 8.69771 15.297 9.16132 16.1152 9.97979C16.9335 10.7983 17.3968 11.9059 17.4051 13.0632C17.4051 15.5123 15.4228 17.4946 13.0322 17.4946H12.9737C10.583 17.4946 8.59962 15.5123 8.59962 13.0632C8.60816 11.9058 9.07174 10.7982 9.89019 9.97972C10.7086 9.16128 11.8162 8.6977 12.9737 8.68916ZM7.43186 2.97524H18.5695C19.7754 2.97703 20.9315 3.45696 21.7841 4.30981C22.6367 5.16266 23.1164 6.31882 23.1179 7.52478V18.6039C23.1161 19.8096 22.6363 20.9655 21.7837 21.8181C20.9311 22.6707 19.7752 23.1505 18.5695 23.1523H7.43186C6.22601 23.1508 5.06996 22.6711 4.21729 21.8184C3.36462 20.9658 2.88494 19.8097 2.88345 18.6039V7.52478C2.88494 6.31892 3.36462 5.16288 4.21729 4.31021C5.06996 3.45754 6.22601 2.97786 7.43186 2.97637V2.97524Z" fill="#100F0F"/>
</svg>
