<svg width="1600" height="264" viewBox="0 0 1600 264" fill="none" xmlns="http://www.w3.org/2000/svg">
<path d="M37.8183 27.4048C38.1381 27.9821 37.713 28.6892 37.0531 28.6775L15.5234 28.2951C14.8635 28.2834 14.4638 27.5617 14.8039 26.996L25.8999 8.542C26.24 7.97636 27.0648 7.99101 27.3847 8.56837L37.8183 27.4048Z" fill="#100F0F"/>
<path d="M-12.339 259.117L-12.0973 260.087L-12.339 259.117ZM-159.696 193.445L-158.813 192.976L-159.696 193.445ZM-131.585 34.5842L-132.253 33.8406L-131.585 34.5842ZM86.0002 132C86.0002 161.012 76.2959 189.189 58.4318 212.049L60.0077 213.28C78.1466 190.069 88.0002 161.458 88.0002 132H86.0002ZM58.4318 212.049C40.5678 234.908 15.5708 251.135 -12.5807 258.146L-12.0973 260.087C16.4872 252.967 41.8689 236.491 60.0077 213.28L58.4318 212.049ZM-12.5807 258.146C-40.7321 265.158 -70.4199 262.551 -96.9189 250.742L-97.7331 252.569C-70.8264 264.56 -40.6818 267.206 -12.0973 260.087L-12.5807 258.146ZM-96.9189 250.742C-123.418 238.932 -145.205 218.598 -158.813 192.976L-160.579 193.914C-146.762 219.93 -124.64 240.577 -97.7331 252.569L-96.9189 250.742ZM-158.813 192.976C-172.42 167.353 -177.066 137.916 -172.011 109.348L-173.98 108.999C-179.113 138.007 -174.396 167.897 -160.579 193.914L-158.813 192.976ZM-172.011 109.348C-166.956 80.7803 -152.49 54.7245 -130.916 35.3278L-132.253 33.8406C-154.159 53.5357 -168.848 79.9923 -173.98 108.999L-172.011 109.348ZM-130.916 35.3278C-109.342 15.9311 -81.9002 4.30821 -52.9577 2.30912L-53.0955 0.31387C-82.4833 2.34372 -110.348 14.1454 -132.253 33.8406L-130.916 35.3278ZM-52.9577 2.30912C-24.0152 0.310024 4.76431 8.04962 28.8001 24.296L29.9201 22.639C5.51453 6.14269 -23.7077 -1.71598 -53.0955 0.31387L-52.9577 2.30912Z" fill="#100F0F"/>
<circle cx="893" cy="132" r="130" stroke="#100F0F" stroke-width="2"/>
<path d="M889.654 137.864C889.654 139.256 889.408 140.492 888.916 141.572C888.436 142.652 887.758 143.564 886.882 144.308C886.018 145.04 884.986 145.598 883.786 145.982C882.598 146.354 881.296 146.54 879.88 146.54C878.68 146.54 877.51 146.384 876.37 146.072C875.23 145.76 874.192 145.268 873.256 144.596C872.32 143.924 871.516 143.054 870.844 141.986C870.184 140.906 869.716 139.604 869.44 138.08L874.552 137.324C874.672 138.02 874.864 138.656 875.128 139.232C875.392 139.808 875.74 140.3 876.172 140.708C876.616 141.104 877.15 141.416 877.774 141.644C878.398 141.86 879.136 141.968 879.988 141.968C880.672 141.968 881.29 141.866 881.842 141.662C882.394 141.446 882.868 141.158 883.264 140.798C883.66 140.438 883.966 140.024 884.182 139.556C884.398 139.076 884.506 138.578 884.506 138.062C884.506 136.814 884.092 135.872 883.264 135.236C882.436 134.588 881.308 134.264 879.88 134.264L876.694 134.264V130.376L882.58 124.652L870.88 124.652V120.08L888.574 120.08V124.652L882.526 130.538C884.866 130.838 886.636 131.594 887.836 132.806C889.048 134.018 889.654 135.704 889.654 137.864ZM895.041 146V120.08L903.465 120.08C905.505 120.08 907.323 120.368 908.919 120.944C910.515 121.52 911.859 122.36 912.951 123.464C914.055 124.568 914.889 125.924 915.453 127.532C916.029 129.14 916.317 130.976 916.317 133.04C916.317 135.104 916.029 136.94 915.453 138.548C914.889 140.156 914.055 141.512 912.951 142.616C911.859 143.72 910.515 144.56 908.919 145.136C907.323 145.712 905.505 146 903.465 146H895.041ZM899.973 141.428H902.961C905.697 141.428 907.749 140.726 909.117 139.322C910.485 137.918 911.169 135.824 911.169 133.04C911.169 127.448 908.433 124.652 902.961 124.652H899.973V141.428Z" fill="#100F0F"/>
<rect x="1074" y="1" width="575" height="262" rx="131" fill="#0002CD"/>
<path d="M1247.01 146L1241.85 146L1240.14 140.6L1230.47 140.6L1228.76 146H1223.59L1232 120.08L1238.61 120.08L1247.01 146ZM1238.68 136.028L1235.31 125.372L1231.93 136.028L1238.68 136.028ZM1259.72 137.216H1255.78V146H1250.85V120.08L1261.29 120.08C1262.87 120.08 1264.25 120.272 1265.43 120.656C1266.62 121.04 1267.6 121.604 1268.36 122.348C1269.14 123.08 1269.73 123.974 1270.11 125.03C1270.49 126.086 1270.69 127.292 1270.69 128.648C1270.69 130.748 1270.22 132.488 1269.3 133.868C1268.39 135.248 1266.98 136.208 1265.09 136.748L1271.05 146L1265.38 146L1259.72 137.216ZM1255.78 132.644H1261.25C1262.74 132.644 1263.86 132.308 1264.62 131.636C1265.38 130.952 1265.75 129.956 1265.75 128.648C1265.75 127.34 1265.38 126.35 1264.62 125.678C1263.86 124.994 1262.74 124.652 1261.25 124.652L1255.78 124.652V132.644ZM1281.18 146V124.652L1273.56 124.652V120.08L1293.72 120.08V124.652H1286.11V146H1281.18ZM1304.16 146V120.08L1312.59 120.08C1314.63 120.08 1316.44 120.368 1318.04 120.944C1319.64 121.52 1320.98 122.36 1322.07 123.464C1323.18 124.568 1324.01 125.924 1324.57 127.532C1325.15 129.14 1325.44 130.976 1325.44 133.04C1325.44 135.104 1325.15 136.94 1324.57 138.548C1324.01 140.156 1323.18 141.512 1322.07 142.616C1320.98 143.72 1319.64 144.56 1318.04 145.136C1316.44 145.712 1314.63 146 1312.59 146L1304.16 146ZM1309.09 141.428H1312.08C1314.82 141.428 1316.87 140.726 1318.24 139.322C1319.61 137.918 1320.29 135.824 1320.29 133.04C1320.29 127.448 1317.55 124.652 1312.08 124.652L1309.09 124.652V141.428ZM1330.84 146V120.08L1335.77 120.08V146L1330.84 146ZM1350.76 137.216H1346.81V146L1341.88 146V120.08L1352.32 120.08C1353.91 120.08 1355.29 120.272 1356.46 120.656C1357.65 121.04 1358.63 121.604 1359.4 122.348C1360.18 123.08 1360.76 123.974 1361.14 125.03C1361.53 126.086 1361.72 127.292 1361.72 128.648C1361.72 130.748 1361.26 132.488 1360.33 133.868C1359.42 135.248 1358.02 136.208 1356.12 136.748L1362.08 146H1356.41L1350.76 137.216ZM1346.81 132.644H1352.29C1353.77 132.644 1354.9 132.308 1355.65 131.636C1356.41 130.952 1356.79 129.956 1356.79 128.648C1356.79 127.34 1356.41 126.35 1355.65 125.678C1354.9 124.994 1353.77 124.652 1352.29 124.652L1346.81 124.652V132.644ZM1366.76 146V120.08L1383.71 120.08V124.652L1371.69 124.652V130.196L1381.55 130.196V134.768L1371.69 134.768V141.428L1383.71 141.428V146L1366.76 146ZM1398.95 146.54C1397.01 146.54 1395.26 146.216 1393.7 145.568C1392.15 144.92 1390.84 144.002 1389.76 142.814C1388.68 141.626 1387.84 140.204 1387.25 138.548C1386.68 136.892 1386.39 135.056 1386.39 133.04C1386.39 131.024 1386.68 129.188 1387.25 127.532C1387.84 125.876 1388.68 124.454 1389.76 123.266C1390.84 122.078 1392.15 121.16 1393.7 120.512C1395.26 119.864 1397.01 119.54 1398.95 119.54C1400.44 119.54 1401.81 119.732 1403.06 120.116C1404.32 120.5 1405.45 121.046 1406.44 121.754C1407.44 122.462 1408.3 123.326 1409.02 124.346C1409.75 125.354 1410.32 126.488 1410.73 127.748L1405.79 129.116C1405.3 127.544 1404.49 126.326 1403.36 125.462C1402.24 124.586 1400.77 124.148 1398.95 124.148C1397.77 124.148 1396.71 124.358 1395.79 124.778C1394.87 125.198 1394.1 125.798 1393.46 126.578C1392.84 127.346 1392.36 128.276 1392.02 129.368C1391.7 130.46 1391.54 131.684 1391.54 133.04C1391.54 134.384 1391.69 135.608 1392.01 136.712C1392.32 137.804 1392.78 138.74 1393.39 139.52C1394.02 140.288 1394.79 140.882 1395.71 141.302C1396.64 141.722 1397.72 141.932 1398.95 141.932C1400.77 141.932 1402.24 141.5 1403.36 140.636C1404.49 139.76 1405.3 138.536 1405.79 136.964L1410.73 138.332C1410.32 139.592 1409.75 140.732 1409.02 141.752C1408.3 142.76 1407.44 143.618 1406.44 144.326C1405.45 145.034 1404.32 145.58 1403.06 145.964C1401.81 146.348 1400.44 146.54 1398.95 146.54ZM1420.86 146V124.652L1413.25 124.652V120.08L1433.41 120.08V124.652L1425.8 124.652V146H1420.86ZM1437.37 146V120.08H1442.3V146H1437.37ZM1459.54 146.54C1457.6 146.54 1455.85 146.216 1454.29 145.568C1452.74 144.92 1451.43 144.002 1450.35 142.814C1449.27 141.626 1448.43 140.204 1447.84 138.548C1447.27 136.892 1446.98 135.056 1446.98 133.04C1446.98 131.024 1447.27 129.188 1447.84 127.532C1448.43 125.876 1449.27 124.454 1450.35 123.266C1451.43 122.078 1452.74 121.16 1454.29 120.512C1455.85 119.864 1457.6 119.54 1459.54 119.54C1461.49 119.54 1463.23 119.864 1464.78 120.512C1466.34 121.16 1467.66 122.078 1468.74 123.266C1469.82 124.454 1470.65 125.876 1471.23 127.532C1471.81 129.188 1472.11 131.024 1472.11 133.04C1472.11 135.056 1471.81 136.892 1471.23 138.548C1470.65 140.204 1469.82 141.626 1468.74 142.814C1467.66 144.002 1466.34 144.92 1464.78 145.568C1463.23 146.216 1461.49 146.54 1459.54 146.54ZM1459.54 141.932C1460.78 141.932 1461.86 141.722 1462.78 141.302C1463.71 140.882 1464.48 140.288 1465.09 139.52C1465.7 138.74 1466.16 137.804 1466.46 136.712C1466.77 135.608 1466.92 134.384 1466.92 133.04C1466.92 131.684 1466.77 130.46 1466.46 129.368C1466.16 128.276 1465.7 127.346 1465.09 126.578C1464.48 125.798 1463.71 125.198 1462.78 124.778C1461.86 124.358 1460.78 124.148 1459.54 124.148C1458.31 124.148 1457.23 124.358 1456.3 124.778C1455.38 125.198 1454.61 125.798 1454 126.578C1453.39 127.346 1452.93 128.276 1452.61 129.368C1452.31 130.46 1452.16 131.684 1452.16 133.04C1452.16 134.384 1452.31 135.608 1452.61 136.712C1452.93 137.804 1453.39 138.74 1454 139.52C1454.61 140.288 1455.38 140.882 1456.3 141.302C1457.23 141.722 1458.31 141.932 1459.54 141.932ZM1476.42 146V120.08H1481.35L1492.69 137.54V120.08L1497.63 120.08V146H1492.69L1481.35 128.54V146L1476.42 146Z" fill="#F2F2F2"/>
<rect x="138" y="2" width="573" height="260" rx="130" stroke="#100F0F" stroke-width="2"/>
<path d="M296.88 146L296.88 120.08L301.812 120.08L301.812 146H296.88ZM308.288 146L308.288 120.08H313.22L313.22 141.428L324.38 141.428V146L308.288 146ZM328.519 146L328.519 120.08L333.451 120.08L333.451 141.428L344.611 141.428V146L328.519 146ZM358.939 146.54C357.379 146.54 355.951 146.312 354.655 145.856C353.359 145.4 352.243 144.716 351.307 143.804C350.383 142.88 349.663 141.734 349.147 140.366C348.643 138.986 348.391 137.384 348.391 135.56L348.391 120.08H353.323L353.323 135.344C353.323 137.588 353.773 139.25 354.673 140.33C355.573 141.398 356.995 141.932 358.939 141.932C360.883 141.932 362.305 141.398 363.205 140.33C364.105 139.25 364.555 137.588 364.555 135.344L364.555 120.08L369.487 120.08L369.487 135.56C369.487 137.384 369.229 138.986 368.713 140.366C368.209 141.734 367.489 142.88 366.553 143.804C365.629 144.716 364.519 145.4 363.223 145.856C361.939 146.312 360.511 146.54 358.939 146.54ZM383.583 146.54C382.119 146.54 380.763 146.342 379.515 145.946C378.279 145.55 377.187 144.986 376.239 144.254C375.291 143.51 374.511 142.622 373.899 141.59C373.299 140.546 372.903 139.376 372.711 138.08L377.823 137.324C378.567 140.42 380.595 141.968 383.907 141.968C384.615 141.968 385.269 141.884 385.869 141.716C386.469 141.548 386.991 141.314 387.435 141.014C387.879 140.702 388.221 140.342 388.461 139.934C388.713 139.514 388.839 139.064 388.839 138.584C388.839 137.396 387.999 136.556 386.319 136.064L379.587 134.084C375.675 132.92 373.719 130.64 373.719 127.244C373.719 126.092 373.953 125.042 374.421 124.094C374.889 123.146 375.543 122.342 376.383 121.682C377.235 121.01 378.243 120.494 379.407 120.134C380.583 119.762 381.867 119.576 383.259 119.576C386.019 119.576 388.299 120.23 390.099 121.538C391.911 122.846 393.135 124.724 393.771 127.172L388.479 128.072C388.191 126.8 387.591 125.828 386.679 125.156C385.779 124.484 384.615 124.148 383.187 124.148C382.515 124.148 381.909 124.22 381.369 124.364C380.841 124.508 380.391 124.712 380.019 124.976C379.647 125.228 379.359 125.534 379.155 125.894C378.963 126.242 378.867 126.626 378.867 127.046C378.867 127.694 379.143 128.24 379.695 128.684C380.259 129.128 381.153 129.518 382.377 129.854L386.823 131.06C389.259 131.72 391.059 132.644 392.223 133.832C393.399 135.008 393.987 136.496 393.987 138.296C393.987 139.52 393.735 140.636 393.231 141.644C392.727 142.652 392.013 143.522 391.089 144.254C390.177 144.974 389.085 145.538 387.813 145.946C386.541 146.342 385.131 146.54 383.583 146.54ZM404.117 146L404.117 124.652L396.503 124.652V120.08L416.663 120.08V124.652L409.049 124.652L409.049 146H404.117ZM429.14 137.216H425.198V146H420.266L420.266 120.08L430.706 120.08C432.29 120.08 433.67 120.272 434.846 120.656C436.034 121.04 437.012 121.604 437.78 122.348C438.56 123.08 439.142 123.974 439.526 125.03C439.91 126.086 440.102 127.292 440.102 128.648C440.102 130.748 439.64 132.488 438.716 133.868C437.804 135.248 436.4 136.208 434.504 136.748L440.462 146L434.792 146L429.14 137.216ZM425.198 132.644H430.67C432.158 132.644 433.28 132.308 434.036 131.636C434.792 130.952 435.17 129.956 435.17 128.648C435.17 127.34 434.792 126.35 434.036 125.678C433.28 124.994 432.158 124.652 430.67 124.652H425.198V132.644ZM466.63 146H461.464L459.754 140.6L450.088 140.6L448.378 146H443.212L451.618 120.08L458.224 120.08L466.63 146ZM458.296 136.028L454.93 125.372L451.546 136.028H458.296ZM473.777 146L473.777 124.652L466.163 124.652V120.08L486.323 120.08V124.652L478.709 124.652L478.709 146H473.777ZM490.286 146L490.286 120.08H495.218L495.218 146H490.286ZM512.457 146.54C510.513 146.54 508.761 146.216 507.201 145.568C505.653 144.92 504.339 144.002 503.259 142.814C502.179 141.626 501.345 140.204 500.757 138.548C500.181 136.892 499.893 135.056 499.893 133.04C499.893 131.024 500.181 129.188 500.757 127.532C501.345 125.876 502.179 124.454 503.259 123.266C504.339 122.078 505.653 121.16 507.201 120.512C508.761 119.864 510.513 119.54 512.457 119.54C514.401 119.54 516.147 119.864 517.695 120.512C519.255 121.16 520.575 122.078 521.655 123.266C522.735 124.454 523.563 125.876 524.139 127.532C524.727 129.188 525.021 131.024 525.021 133.04C525.021 135.056 524.727 136.892 524.139 138.548C523.563 140.204 522.735 141.626 521.655 142.814C520.575 144.002 519.255 144.92 517.695 145.568C516.147 146.216 514.401 146.54 512.457 146.54ZM512.457 141.932C513.693 141.932 514.773 141.722 515.697 141.302C516.621 140.882 517.389 140.288 518.001 139.52C518.613 138.74 519.069 137.804 519.369 136.712C519.681 135.608 519.837 134.384 519.837 133.04C519.837 131.684 519.681 130.46 519.369 129.368C519.069 128.276 518.613 127.346 518.001 126.578C517.389 125.798 516.621 125.198 515.697 124.778C514.773 124.358 513.693 124.148 512.457 124.148C511.221 124.148 510.141 124.358 509.217 124.778C508.293 125.198 507.525 125.798 506.913 126.578C506.301 127.346 505.839 128.276 505.527 129.368C505.227 130.46 505.077 131.684 505.077 133.04C505.077 134.384 505.227 135.608 505.527 136.712C505.839 137.804 506.301 138.74 506.913 139.52C507.525 140.288 508.293 140.882 509.217 141.302C510.141 141.722 511.221 141.932 512.457 141.932ZM529.335 146V120.08L534.267 120.08L545.607 137.54V120.08L550.539 120.08V146L545.607 146L534.267 128.54V146H529.335Z" fill="#100F0F"/>
</svg>



