<svg width="1600" height="262" viewBox="0 0 1600 262" fill="none" xmlns="http://www.w3.org/2000/svg">
<path d="M774.763 171.153C774.21 171.153 773.763 171.6 773.763 172.153C773.763 172.705 774.21 173.153 774.763 173.153V171.153ZM832.195 172.153H833.195V171.153H832.195V172.153ZM831.195 229.585C831.195 230.137 831.643 230.585 832.195 230.585C832.747 230.585 833.195 230.137 833.195 229.585H831.195ZM774.763 173.153H832.195V171.153H774.763V173.153ZM831.195 172.153V229.585H833.195V172.153H831.195Z" fill="#100F0F"/>
<path d="M762 242L832 173" stroke="#100F0F" stroke-width="2" stroke-linecap="round"/>
<path d="M774.763 90.1949C774.21 90.1949 773.763 89.7472 773.763 89.1949C773.763 88.6427 774.21 88.1949 774.763 88.1949V90.1949ZM832.195 89.1949H833.195V90.1949H832.195V89.1949ZM831.195 31.7627C831.195 31.2105 831.643 30.7627 832.195 30.7627C832.747 30.7627 833.195 31.2105 833.195 31.7627H831.195ZM774.763 88.1949H832.195V90.1949H774.763V88.1949ZM831.195 89.1949V31.7627H833.195V89.1949H831.195Z" fill="#100F0F"/>
<path d="M762 19.0001L832 89.0001" stroke="#100F0F" stroke-width="2" stroke-linecap="round"/>
<path d="M1000.24 171.153C1000.79 171.153 1001.24 171.6 1001.24 172.153C1001.24 172.705 1000.79 173.153 1000.24 173.153V171.153ZM942.805 172.153H941.805V171.153H942.805V172.153ZM943.805 229.585C943.805 230.137 943.357 230.585 942.805 230.585C942.253 230.585 941.805 230.137 941.805 229.585H943.805ZM1000.24 173.153H942.805V171.153H1000.24V173.153ZM943.805 172.153V229.585H941.805V172.153H943.805Z" fill="#100F0F"/>
<path d="M1013 242L943 173" stroke="#100F0F" stroke-width="2" stroke-linecap="round"/>
<path d="M1000.24 90.1949C1000.79 90.1949 1001.24 89.7472 1001.24 89.1949C1001.24 88.6427 1000.79 88.1949 1000.24 88.1949V90.1949ZM942.805 89.1949H941.805V90.1949H942.805V89.1949ZM943.805 31.7627C943.805 31.2105 943.357 30.7627 942.805 30.7627C942.253 30.7627 941.805 31.2105 941.805 31.7627H943.805ZM1000.24 88.1949H942.805V90.1949H1000.24V88.1949ZM943.805 89.1949V31.7627H941.805V89.1949H943.805Z" fill="#100F0F"/>
<path d="M1013 19.0001L943 89.0001" stroke="#100F0F" stroke-width="2" stroke-linecap="round"/>
<circle cx="581" cy="131" r="131" fill="#D3392B"/>
<path d="M540.068 145.54C538.508 145.54 537.08 145.312 535.784 144.856C534.488 144.4 533.372 143.716 532.436 142.804C531.512 141.88 530.792 140.734 530.276 139.366C529.772 137.986 529.52 136.384 529.52 134.56V119.08L534.452 119.08V134.344C534.452 136.588 534.902 138.25 535.802 139.33C536.702 140.398 538.124 140.932 540.068 140.932C542.012 140.932 543.434 140.398 544.334 139.33C545.234 138.25 545.684 136.588 545.684 134.344V119.08L550.616 119.08V134.56C550.616 136.384 550.358 137.986 549.842 139.366C549.338 140.734 548.618 141.88 547.682 142.804C546.758 143.716 545.648 144.4 544.352 144.856C543.068 145.312 541.64 145.54 540.068 145.54ZM554.201 145L562.913 131.896L554.453 119.08L560.465 119.08L565.973 127.72L571.409 119.08L577.457 119.08L568.997 131.896L577.673 145H571.661L565.973 136.072L560.249 145H554.201ZM594.158 119.08L587.246 145L582.35 145L589.262 119.08H594.158ZM610.115 145.54C608.555 145.54 607.127 145.312 605.831 144.856C604.535 144.4 603.419 143.716 602.483 142.804C601.559 141.88 600.839 140.734 600.323 139.366C599.819 137.986 599.567 136.384 599.567 134.56V119.08H604.499V134.344C604.499 136.588 604.949 138.25 605.849 139.33C606.749 140.398 608.171 140.932 610.115 140.932C612.059 140.932 613.481 140.398 614.381 139.33C615.281 138.25 615.731 136.588 615.731 134.344V119.08H620.663V134.56C620.663 136.384 620.405 137.986 619.889 139.366C619.385 140.734 618.665 141.88 617.729 142.804C616.805 143.716 615.695 144.4 614.399 144.856C613.115 145.312 611.687 145.54 610.115 145.54ZM626.768 145V119.08L631.7 119.08V145H626.768Z" fill="white"/>
<rect x="-174" y="1" width="573" height="260" rx="130" stroke="#100F0F" stroke-width="2"/>
<path d="M28.816 145L18.52 145L18.52 119.08L28.546 119.08C29.734 119.08 30.85 119.224 31.894 119.512C32.95 119.8 33.868 120.232 34.648 120.808C35.428 121.372 36.046 122.086 36.502 122.95C36.958 123.802 37.186 124.798 37.186 125.938C37.186 126.778 37.066 127.522 36.826 128.17C36.598 128.806 36.304 129.358 35.944 129.826C35.596 130.282 35.212 130.648 34.792 130.924C34.372 131.2 33.97 131.398 33.586 131.518C34.078 131.602 34.582 131.794 35.098 132.094C35.626 132.394 36.106 132.802 36.538 133.318C36.97 133.822 37.324 134.446 37.6 135.19C37.888 135.922 38.032 136.774 38.032 137.746C38.032 139.006 37.786 140.098 37.294 141.022C36.802 141.934 36.136 142.684 35.296 143.272C34.456 143.86 33.478 144.298 32.362 144.586C31.246 144.862 30.064 145 28.816 145ZM28.654 123.652L23.452 123.652L23.452 129.394L28.654 129.394C29.146 129.394 29.608 129.352 30.04 129.268C30.484 129.172 30.868 129.016 31.192 128.8C31.516 128.584 31.768 128.296 31.948 127.936C32.14 127.564 32.236 127.096 32.236 126.532C32.236 125.968 32.14 125.5 31.948 125.128C31.768 124.756 31.516 124.462 31.192 124.246C30.868 124.03 30.484 123.88 30.04 123.796C29.608 123.7 29.146 123.652 28.654 123.652ZM28.816 140.428C29.344 140.428 29.866 140.392 30.382 140.32C30.898 140.236 31.36 140.08 31.768 139.852C32.176 139.612 32.506 139.276 32.758 138.844C33.01 138.412 33.136 137.848 33.136 137.152C33.136 136.456 33.01 135.898 32.758 135.478C32.506 135.046 32.176 134.716 31.768 134.488C31.36 134.248 30.898 134.092 30.382 134.02C29.866 133.936 29.344 133.894 28.816 133.894L23.452 133.894L23.452 140.428L28.816 140.428ZM51.2117 136.216H47.2697L47.2697 145H42.3377L42.3377 119.08L52.7777 119.08C54.3617 119.08 55.7417 119.272 56.9177 119.656C58.1057 120.04 59.0837 120.604 59.8517 121.348C60.6317 122.08 61.2137 122.974 61.5977 124.03C61.9817 125.086 62.1737 126.292 62.1737 127.648C62.1737 129.748 61.7117 131.488 60.7877 132.868C59.8757 134.248 58.4717 135.208 56.5757 135.748L62.5337 145L56.8637 145L51.2117 136.216ZM47.2697 131.644H52.7417C54.2297 131.644 55.3517 131.308 56.1077 130.636C56.8637 129.952 57.2417 128.956 57.2417 127.648C57.2417 126.34 56.8637 125.35 56.1077 124.678C55.3517 123.994 54.2297 123.652 52.7417 123.652H47.2697L47.2697 131.644ZM88.702 145H83.536L81.826 139.6L72.16 139.6L70.45 145H65.284L73.69 119.08L80.296 119.08L88.702 145ZM80.368 135.028L77.002 124.372L73.618 135.028H80.368ZM92.5394 145L92.5394 119.08L97.4714 119.08L108.811 136.54L108.811 119.08L113.743 119.08L113.743 145H108.811L97.4714 127.54L97.4714 145L92.5394 145ZM119.486 145L119.486 119.08L127.91 119.08C129.95 119.08 131.768 119.368 133.364 119.944C134.96 120.52 136.304 121.36 137.396 122.464C138.5 123.568 139.334 124.924 139.898 126.532C140.474 128.14 140.762 129.976 140.762 132.04C140.762 134.104 140.474 135.94 139.898 137.548C139.334 139.156 138.5 140.512 137.396 141.616C136.304 142.72 134.96 143.56 133.364 144.136C131.768 144.712 129.95 145 127.91 145L119.486 145ZM124.418 140.428L127.406 140.428C130.142 140.428 132.194 139.726 133.562 138.322C134.93 136.918 135.614 134.824 135.614 132.04C135.614 126.448 132.878 123.652 127.406 123.652L124.418 123.652L124.418 140.428ZM146.16 145L146.16 119.08H151.092L151.092 145H146.16ZM157.207 145L157.207 119.08L162.139 119.08L173.479 136.54L173.479 119.08L178.411 119.08L178.411 145H173.479L162.139 127.54L162.139 145L157.207 145ZM202.154 141.886C201.878 142.45 201.494 142.96 201.002 143.416C200.51 143.86 199.94 144.244 199.292 144.568C198.644 144.88 197.93 145.12 197.15 145.288C196.37 145.456 195.548 145.54 194.684 145.54C192.908 145.54 191.282 145.24 189.806 144.64C188.342 144.028 187.082 143.146 186.026 141.994C184.97 140.83 184.154 139.414 183.578 137.746C183.002 136.066 182.714 134.164 182.714 132.04C182.714 130.036 183.014 128.206 183.614 126.55C184.214 124.894 185.06 123.472 186.152 122.284C187.244 121.096 188.546 120.178 190.058 119.53C191.57 118.87 193.232 118.54 195.044 118.54C198.164 118.54 200.69 119.278 202.622 120.754C204.566 122.23 205.952 124.456 206.78 127.432L201.776 128.152C201.596 127.372 201.314 126.676 200.93 126.064C200.546 125.44 200.072 124.912 199.508 124.48C198.944 124.048 198.296 123.718 197.564 123.49C196.844 123.262 196.058 123.148 195.206 123.148C194.066 123.148 193.046 123.352 192.146 123.76C191.246 124.156 190.478 124.732 189.842 125.488C189.218 126.244 188.738 127.174 188.402 128.278C188.066 129.382 187.898 130.636 187.898 132.04C187.898 133.444 188.048 134.698 188.348 135.802C188.66 136.906 189.122 137.842 189.734 138.61C190.346 139.366 191.108 139.942 192.02 140.338C192.932 140.734 193.988 140.932 195.188 140.932C196.052 140.932 196.868 140.812 197.636 140.572C198.404 140.332 199.082 139.972 199.67 139.492C200.258 139 200.738 138.388 201.11 137.656C201.482 136.924 201.698 136.06 201.758 135.064H193.604V130.492L207.086 130.492L207.086 145L202.154 145V141.886Z" fill="#100F0F"/>
<rect x="1376" y="1" width="573" height="260" rx="130" stroke="#100F0F" stroke-width="2"/>
<path d="M1518.52 145V119.08L1523.45 119.08L1531.48 135.658L1539.51 119.08H1544.44V145H1539.51V128.8L1533.51 141.202H1529.45L1523.45 128.8V145H1518.52ZM1561.34 145.54C1559.39 145.54 1557.64 145.216 1556.08 144.568C1554.53 143.92 1553.22 143.002 1552.14 141.814C1551.06 140.626 1550.22 139.204 1549.64 137.548C1549.06 135.892 1548.77 134.056 1548.77 132.04C1548.77 130.024 1549.06 128.188 1549.64 126.532C1550.22 124.876 1551.06 123.454 1552.14 122.266C1553.22 121.078 1554.53 120.16 1556.08 119.512C1557.64 118.864 1559.39 118.54 1561.34 118.54C1563.28 118.54 1565.03 118.864 1566.57 119.512C1568.13 120.16 1569.45 121.078 1570.53 122.266C1571.61 123.454 1572.44 124.876 1573.02 126.532C1573.61 128.188 1573.9 130.024 1573.9 132.04C1573.9 134.056 1573.61 135.892 1573.02 137.548C1572.44 139.204 1571.61 140.626 1570.53 141.814C1569.45 143.002 1568.13 143.92 1566.57 144.568C1565.03 145.216 1563.28 145.54 1561.34 145.54ZM1561.34 140.932C1562.57 140.932 1563.65 140.722 1564.58 140.302C1565.5 139.882 1566.27 139.288 1566.88 138.52C1567.49 137.74 1567.95 136.804 1568.25 135.712C1568.56 134.608 1568.72 133.384 1568.72 132.04C1568.72 130.684 1568.56 129.46 1568.25 128.368C1567.95 127.276 1567.49 126.346 1566.88 125.578C1566.27 124.798 1565.5 124.198 1564.58 123.778C1563.65 123.358 1562.57 123.148 1561.34 123.148C1560.1 123.148 1559.02 123.358 1558.1 123.778C1557.17 124.198 1556.4 124.798 1555.79 125.578C1555.18 126.346 1554.72 127.276 1554.41 128.368C1554.11 129.46 1553.96 130.684 1553.96 132.04C1553.96 133.384 1554.11 134.608 1554.41 135.712C1554.72 136.804 1555.18 137.74 1555.79 138.52C1556.4 139.288 1557.17 139.882 1558.1 140.302C1559.02 140.722 1560.1 140.932 1561.34 140.932ZM1582.96 145V123.652L1575.35 123.652V119.08L1595.51 119.08V123.652L1587.9 123.652V145H1582.96ZM1599.47 145V119.08L1604.41 119.08V145H1599.47ZM1621.65 145.54C1619.7 145.54 1617.95 145.216 1616.39 144.568C1614.84 143.92 1613.53 143.002 1612.45 141.814C1611.37 140.626 1610.53 139.204 1609.95 137.548C1609.37 135.892 1609.08 134.056 1609.08 132.04C1609.08 130.024 1609.37 128.188 1609.95 126.532C1610.53 124.876 1611.37 123.454 1612.45 122.266C1613.53 121.078 1614.84 120.16 1616.39 119.512C1617.95 118.864 1619.7 118.54 1621.65 118.54C1623.59 118.54 1625.34 118.864 1626.88 119.512C1628.44 120.16 1629.76 121.078 1630.84 122.266C1631.92 123.454 1632.75 124.876 1633.33 126.532C1633.92 128.188 1634.21 130.024 1634.21 132.04C1634.21 134.056 1633.92 135.892 1633.33 137.548C1632.75 139.204 1631.92 140.626 1630.84 141.814C1629.76 143.002 1628.44 143.92 1626.88 144.568C1625.34 145.216 1623.59 145.54 1621.65 145.54ZM1621.65 140.932C1622.88 140.932 1623.96 140.722 1624.89 140.302C1625.81 139.882 1626.58 139.288 1627.19 138.52C1627.8 137.74 1628.26 136.804 1628.56 135.712C1628.87 134.608 1629.03 133.384 1629.03 132.04C1629.03 130.684 1628.87 129.46 1628.56 128.368C1628.26 127.276 1627.8 126.346 1627.19 125.578C1626.58 124.798 1625.81 124.198 1624.89 123.778C1623.96 123.358 1622.88 123.148 1621.65 123.148C1620.41 123.148 1619.33 123.358 1618.41 123.778C1617.48 124.198 1616.71 124.798 1616.1 125.578C1615.49 126.346 1615.03 127.276 1614.72 128.368C1614.42 129.46 1614.27 130.684 1614.27 132.04C1614.27 133.384 1614.42 134.608 1614.72 135.712C1615.03 136.804 1615.49 137.74 1616.1 138.52C1616.71 139.288 1617.48 139.882 1618.41 140.302C1619.33 140.722 1620.41 140.932 1621.65 140.932ZM1638.52 145V119.08H1643.45L1654.79 136.54V119.08H1659.73V145L1654.79 145L1643.45 127.54V145H1638.52ZM1673.4 145V119.08L1681.82 119.08C1683.86 119.08 1685.68 119.368 1687.27 119.944C1688.87 120.52 1690.21 121.36 1691.31 122.464C1692.41 123.568 1693.24 124.924 1693.81 126.532C1694.38 128.14 1694.67 129.976 1694.67 132.04C1694.67 134.104 1694.38 135.94 1693.81 137.548C1693.24 139.156 1692.41 140.512 1691.31 141.616C1690.21 142.72 1688.87 143.56 1687.27 144.136C1685.68 144.712 1683.86 145 1681.82 145H1673.4ZM1678.33 140.428H1681.32C1684.05 140.428 1686.1 139.726 1687.47 138.322C1688.84 136.918 1689.52 134.824 1689.52 132.04C1689.52 126.448 1686.79 123.652 1681.32 123.652H1678.33V140.428ZM1699.71 145V119.08L1716.67 119.08V123.652L1704.64 123.652V129.196L1714.51 129.196V133.768L1704.64 133.768V140.428L1716.67 140.428V145L1699.71 145ZM1731.49 145.54C1730.03 145.54 1728.67 145.342 1727.42 144.946C1726.19 144.55 1725.1 143.986 1724.15 143.254C1723.2 142.51 1722.42 141.622 1721.81 140.59C1721.21 139.546 1720.81 138.376 1720.62 137.08L1725.73 136.324C1726.48 139.42 1728.5 140.968 1731.82 140.968C1732.52 140.968 1733.18 140.884 1733.78 140.716C1734.38 140.548 1734.9 140.314 1735.34 140.014C1735.79 139.702 1736.13 139.342 1736.37 138.934C1736.62 138.514 1736.75 138.064 1736.75 137.584C1736.75 136.396 1735.91 135.556 1734.23 135.064L1727.5 133.084C1723.58 131.92 1721.63 129.64 1721.63 126.244C1721.63 125.092 1721.86 124.042 1722.33 123.094C1722.8 122.146 1723.45 121.342 1724.29 120.682C1725.14 120.01 1726.15 119.494 1727.32 119.134C1728.49 118.762 1729.78 118.576 1731.17 118.576C1733.93 118.576 1736.21 119.23 1738.01 120.538C1739.82 121.846 1741.04 123.724 1741.68 126.172L1736.39 127.072C1736.1 125.8 1735.5 124.828 1734.59 124.156C1733.69 123.484 1732.52 123.148 1731.1 123.148C1730.42 123.148 1729.82 123.22 1729.28 123.364C1728.75 123.508 1728.3 123.712 1727.93 123.976C1727.56 124.228 1727.27 124.534 1727.06 124.894C1726.87 125.242 1726.78 125.626 1726.78 126.046C1726.78 126.694 1727.05 127.24 1727.6 127.684C1728.17 128.128 1729.06 128.518 1730.29 128.854L1734.73 130.06C1737.17 130.72 1738.97 131.644 1740.13 132.832C1741.31 134.008 1741.9 135.496 1741.9 137.296C1741.9 138.52 1741.64 139.636 1741.14 140.644C1740.64 141.652 1739.92 142.522 1739 143.254C1738.09 143.974 1736.99 144.538 1735.72 144.946C1734.45 145.342 1733.04 145.54 1731.49 145.54ZM1746.93 145V119.08H1751.86V145H1746.93ZM1775.98 141.886C1775.7 142.45 1775.32 142.96 1774.83 143.416C1774.34 143.86 1773.77 144.244 1773.12 144.568C1772.47 144.88 1771.76 145.12 1770.98 145.288C1770.2 145.456 1769.37 145.54 1768.51 145.54C1766.73 145.54 1765.11 145.24 1763.63 144.64C1762.17 144.028 1760.91 143.146 1759.85 141.994C1758.8 140.83 1757.98 139.414 1757.4 137.746C1756.83 136.066 1756.54 134.164 1756.54 132.04C1756.54 130.036 1756.84 128.206 1757.44 126.55C1758.04 124.894 1758.89 123.472 1759.98 122.284C1761.07 121.096 1762.37 120.178 1763.88 119.53C1765.4 118.87 1767.06 118.54 1768.87 118.54C1771.99 118.54 1774.52 119.278 1776.45 120.754C1778.39 122.23 1779.78 124.456 1780.61 127.432L1775.6 128.152C1775.42 127.372 1775.14 126.676 1774.76 126.064C1774.37 125.44 1773.9 124.912 1773.33 124.48C1772.77 124.048 1772.12 123.718 1771.39 123.49C1770.67 123.262 1769.88 123.148 1769.03 123.148C1767.89 123.148 1766.87 123.352 1765.97 123.76C1765.07 124.156 1764.3 124.732 1763.67 125.488C1763.04 126.244 1762.56 127.174 1762.23 128.278C1761.89 129.382 1761.72 130.636 1761.72 132.04C1761.72 133.444 1761.87 134.698 1762.17 135.802C1762.49 136.906 1762.95 137.842 1763.56 138.61C1764.17 139.366 1764.93 139.942 1765.85 140.338C1766.76 140.734 1767.81 140.932 1769.01 140.932C1769.88 140.932 1770.69 140.812 1771.46 140.572C1772.23 140.332 1772.91 139.972 1773.5 139.492C1774.08 139 1774.56 138.388 1774.94 137.656C1775.31 136.924 1775.52 136.06 1775.58 135.064L1767.43 135.064V130.492L1780.91 130.492V145H1775.98V141.886ZM1785.59 145V119.08L1790.53 119.08L1801.87 136.54V119.08L1806.8 119.08V145L1801.87 145L1790.53 127.54V145H1785.59Z" fill="#100F0F"/>
<circle cx="1194" cy="131" r="130" stroke="#100F0F" stroke-width="2"/>
<path d="M1172.16 140.392L1183.09 130.978C1183.57 130.57 1183.97 130.192 1184.31 129.844C1184.65 129.496 1184.92 129.154 1185.12 128.818C1185.34 128.47 1185.49 128.122 1185.59 127.774C1185.68 127.414 1185.73 127.024 1185.73 126.604C1185.73 125.968 1185.62 125.428 1185.41 124.984C1185.2 124.54 1184.92 124.186 1184.54 123.922C1184.18 123.646 1183.76 123.448 1183.27 123.328C1182.79 123.208 1182.27 123.148 1181.72 123.148C1180.45 123.148 1179.43 123.484 1178.66 124.156C1177.89 124.828 1177.37 125.8 1177.09 127.072L1171.8 126.172C1172.1 124.96 1172.54 123.886 1173.13 122.95C1173.72 122.002 1174.43 121.204 1175.27 120.556C1176.11 119.908 1177.07 119.416 1178.14 119.08C1179.22 118.744 1180.39 118.576 1181.66 118.576C1182.92 118.576 1184.12 118.732 1185.25 119.044C1186.37 119.344 1187.36 119.818 1188.2 120.466C1189.04 121.114 1189.7 121.954 1190.18 122.986C1190.66 124.006 1190.89 125.236 1190.86 126.676C1190.85 127.552 1190.71 128.368 1190.45 129.124C1190.2 129.88 1189.88 130.57 1189.51 131.194C1189.15 131.818 1188.76 132.37 1188.32 132.85C1187.89 133.33 1187.48 133.732 1187.1 134.056L1179.76 140.392H1190.88V145L1172.16 145V140.392ZM1195.92 145V119.08L1204.34 119.08C1206.38 119.08 1208.2 119.368 1209.79 119.944C1211.39 120.52 1212.73 121.36 1213.83 122.464C1214.93 123.568 1215.76 124.924 1216.33 126.532C1216.9 128.14 1217.19 129.976 1217.19 132.04C1217.19 134.104 1216.9 135.94 1216.33 137.548C1215.76 139.156 1214.93 140.512 1213.83 141.616C1212.73 142.72 1211.39 143.56 1209.79 144.136C1208.2 144.712 1206.38 145 1204.34 145H1195.92ZM1200.85 140.428H1203.84C1206.57 140.428 1208.62 139.726 1209.99 138.322C1211.36 136.918 1212.04 134.824 1212.04 132.04C1212.04 126.448 1209.31 123.652 1203.84 123.652H1200.85V140.428Z" fill="#100F0F"/>
</svg>
