<svg width="778" height="790" viewBox="0 0 778 790" fill="none" xmlns="http://www.w3.org/2000/svg">
<path d="M53.1374 91.8969L7.6839 97.9002C-3.55013 99.384 -11.9072 109.023 -11.7839 120.354L-5.89969 660.915C-5.23926 721.587 -4.90904 751.923 14.0852 770.711C33.0794 789.5 63.4171 789.5 124.093 789.5H386H454H467.41C479.409 789.5 491.347 787.795 502.866 784.435L508.866 782.685C517.24 780.243 525.193 776.538 532.45 771.7C540.1 766.6 546.882 760.304 552.535 753.053L567 734.5C581.931 719.237 598.86 706.065 617.325 695.344L620.5 693.5L660 675L698.5 657.5L715.182 649.614C722.369 646.216 729.13 641.983 735.324 637C744.374 629.721 752.1 620.936 758.164 611.031L764 601.5L765.335 599.014C773.946 582.98 777.987 564.889 777.018 546.714C776.674 540.254 775.699 533.842 774.107 527.571L771.815 518.536C769.29 508.583 765.11 499.124 759.452 490.555C753.53 481.588 746.078 473.732 737.437 467.344L727.5 460L717.444 453.775C710.19 449.284 702.299 445.914 694.039 443.777C683.122 440.954 671.753 440.336 660.595 441.959L657.208 442.452C652.409 443.15 647.666 444.19 643.015 445.564L641.06 446.141C632.377 448.707 623.985 452.17 616.02 456.476L609.5 460L597.703 467.239C590.956 471.379 583.52 474.274 575.749 475.785L574.331 476.061C571.118 476.685 567.852 477 564.579 477C560.541 477 556.516 476.521 552.591 475.574L548.34 474.548C545.452 473.85 542.627 472.912 539.897 471.741L536.728 470.383C534.585 469.465 532.572 468.271 530.739 466.83C527.941 464.632 525.61 461.898 523.882 458.788L523.353 457.835C522.121 455.618 521.126 453.277 520.383 450.852L518.183 443.665C515.41 434.605 514 425.184 514 415.709V413.415C514 402.203 515.701 391.056 519.045 380.355L526.5 356.5L535.137 333.797C541.033 318.298 545.507 302.294 548.503 285.984L549.153 282.444C551.712 268.51 553 254.373 553 240.206V235.285C553 222.463 551.676 209.675 549.049 197.124C545.698 181.111 540.251 165.609 532.85 151.019L526.5 138.5L524.34 134.682C511.525 112.033 495.25 91.5259 476.104 73.9024C466.052 64.6497 455.257 56.2374 443.829 48.7501L417.5 31.5L405.123 25.593C384.146 15.581 361.862 8.57491 338.929 4.78151C317.733 1.27543 296.171 0.54489 274.787 2.60831L250 5L232.634 8.44035C208.988 13.125 186.089 21.0047 164.567 31.8627L162.122 33.0963C148.406 40.0158 135.394 48.249 123.268 57.6804L109.69 68.2413C100.941 75.0459 91.2702 80.5739 80.9671 84.6596C72.0231 88.2063 62.6761 90.6371 53.1374 91.8969Z" fill="#3645AE" stroke="#3645AE"/>
</svg>
