<svg width="168" height="114" viewBox="0 0 168 114" fill="none" xmlns="http://www.w3.org/2000/svg">
<path d="M2 55C0.895431 55 9.65645e-08 55.8954 0 57C-9.65645e-08 58.1046 0.89543 59 2 59L2 55ZM166 59C167.105 59 168 58.1046 168 57C168 55.8954 167.105 55 166 55L166 59ZM2 59L166 59L166 55L2 55L2 59Z" fill="#5B5B5B"/>
<path d="M165.999 58.8681C167.104 58.8681 167.999 57.9727 167.999 56.8681C167.999 55.7636 167.104 54.8681 165.999 54.8681V58.8681ZM113.131 2C113.131 0.89543 112.235 0 111.131 0C110.026 0 109.131 0.89543 109.131 2L113.131 2ZM165.999 54.8681C136.801 54.8681 113.131 31.1983 113.131 2L109.131 2C109.131 33.4074 134.592 58.8681 165.999 58.8681V54.8681Z" fill="#5B5B5B"/>
<path d="M165.999 54.8677C167.104 54.8677 167.999 55.7631 167.999 56.8677C167.999 57.9723 167.104 58.8677 165.999 58.8677V54.8677ZM113.131 111.736C113.131 112.84 112.235 113.736 111.131 113.736C110.026 113.736 109.131 112.84 109.131 111.736H113.131ZM165.999 58.8677C136.801 58.8677 113.131 82.5376 113.131 111.736H109.131C109.131 80.3284 134.592 54.8677 165.999 54.8677V58.8677Z" fill="#5B5B5B"/>
</svg>
