<svg width="42" height="42" viewBox="0 0 42 42" fill="none" xmlns="http://www.w3.org/2000/svg">
<path d="M20.9993 0C9.4016 0 0 9.39444 0 20.9824C0 32.5703 9.40196 41.9648 20.9993 41.9648C32.5973 41.9648 42 32.57 42 20.9824C41.9996 9.39444 32.5973 0 20.9993 0ZM24.7251 13.7963H31.0712V15.3299H24.7251V13.7963ZM21.0396 26.37C20.707 27.0452 20.2524 27.5854 19.6765 27.9892C19.1006 28.3923 18.3907 28.6412 17.5468 28.734C17.0171 28.7914 15.7404 28.8269 13.7157 28.8418H8.36202V13.1241H14.6496C15.8943 13.1241 16.8224 13.1759 17.4339 13.2797C18.0454 13.3835 18.5926 13.5993 19.0755 13.928C19.5577 14.2567 19.9608 14.6946 20.2825 15.2414C20.6042 15.7881 20.7654 16.4009 20.7654 17.0797C20.7654 17.8158 20.5668 18.4917 20.1696 19.1063C19.7723 19.7209 19.2342 20.182 18.5548 20.4893C19.5131 20.7683 20.2505 21.244 20.7654 21.9148C21.2803 22.5874 21.5378 23.3765 21.5378 24.2843C21.5381 24.9993 21.3722 25.6945 21.0396 26.37ZM26.2803 25.7384C26.7691 26.2351 27.378 26.4832 28.1071 26.4832C28.6035 26.4832 29.0207 26.3544 29.3595 26.0972C29.6972 25.84 29.9532 25.6466 30.126 25.0748L33.3791 25.0556C33.3577 26.1077 32.2367 27.297 31.3606 27.8717C30.4847 28.4471 29.3889 28.7348 28.0726 28.7348C25.9906 28.7348 24.4488 28.0886 23.4495 26.7945C22.6594 25.758 22.2651 24.4497 22.2651 22.8704C22.2651 20.9835 22.7836 19.5061 23.821 18.4377C24.8584 17.3692 26.1707 16.8348 27.7571 16.8348C29.5392 16.8348 30.9448 17.3943 31.9753 18.5124C33.0051 19.6313 33.4971 21.3448 33.4524 23.6533H25.5138C25.5367 24.5458 25.7919 25.241 26.2803 25.7384Z" fill="#BCBABA"/>
</svg>

