            <svg width="283" height="124" viewBox="0 0 283 124" fill="none" xmlns="http://www.w3.org/2000/svg">
                <path d="M281.577 14.7802C282.21 15.1454 282.21 16.058 281.577 16.4231L261.024 28.2915C260.392 28.6567 259.601 28.2003 259.601 27.4701L259.601 3.73331C259.601 3.00308 260.392 2.5467 261.024 2.91186L281.577 14.7802Z" fill="#100F0F"/>
                <path d="M42.9577 122C64.6962 122 64.6962 15.4497 86.4519 15.4497C108.208 15.4497 108.19 122 129.929 122C151.667 122 151.685 15.4497 173.423 15.4497C195.161 15.4497 195.179 122 216.917 122C238.656 122 238.673 15.4497 260.429 15.4497" stroke="#100F0F" stroke-width="4" stroke-miterlimit="10"/>
                <path d="M0 15.4497C21.7385 15.4497 21.7557 122 43.4942 122" stroke="#100F0F" stroke-width="4" stroke-miterlimit="10"/>
                </svg>