            <svg width="60" height="60" viewBox="0 0 60 60" fill="none" xmlns="http://www.w3.org/2000/svg">
            <path d="M40.5094 39.0688C43.0689 39.0688 45.6034 38.5641 47.9681 37.5835C50.3328 36.603 52.4815 35.1657 54.2913 33.3538C56.1012 31.542 57.5369 29.391 58.5164 27.0236C59.4959 24.6563 60 22.119 60 19.5566C60 16.9942 59.4959 14.457 58.5164 12.0896C57.5369 9.72231 56.1012 7.5713 54.2913 5.75942C52.4815 3.94755 50.3328 2.51029 47.9681 1.52971C45.6034 0.54913 43.069 0.0444326 40.5094 0.0444327L40.5094 19.5566L40.5094 39.0688Z" fill="#100F0F"/>
            <path d="M38.9812 19.5122C38.9812 16.9498 38.477 14.4125 37.4975 12.0452C36.5181 9.67787 35.0824 7.52686 33.2725 5.71499C31.4626 3.90311 29.314 2.46586 26.9493 1.48528C24.5846 0.504698 22.0501 -1.12005e-07 19.4906 0C16.931 1.12005e-07 14.3966 0.504698 12.0319 1.48528C9.66716 2.46586 7.51853 3.90312 5.70866 5.71499C3.89879 7.52687 2.46313 9.67787 1.48363 12.0452C0.504139 14.4125 -2.23762e-07 16.9498 0 19.5122L19.4906 19.5122L38.9812 19.5122Z" fill="#100F0F"/>
            <path d="M19.4906 20.9756C16.931 20.9756 14.3966 21.4803 12.0319 22.4609C9.66715 23.4415 7.51853 24.8787 5.70866 26.6906C3.89879 28.5025 2.46312 30.6535 1.48363 33.0208C0.504138 35.3881 -1.07572e-06 37.9254 -8.51961e-07 40.4878C-6.28198e-07 43.0502 0.504139 45.5875 1.48363 47.9548C2.46313 50.3221 3.89879 52.4731 5.70866 54.285C7.51853 56.0969 9.66716 57.5341 12.0319 58.5147C14.3966 59.4953 16.931 60 19.4906 60L19.4906 40.4878L19.4906 20.9756Z" fill="#100F0F"/>
            <path d="M20.9519 40.4878C20.9519 43.0502 21.4561 45.5875 22.4356 47.9548C23.4151 50.3221 24.8507 52.4731 26.6606 54.285C28.4705 56.0969 30.6191 57.5341 32.9838 58.5147C35.3485 59.4953 37.883 60 40.4425 60C43.0021 60 45.5365 59.4953 47.9012 58.5147C50.2659 57.5341 52.4146 56.0969 54.2244 54.285C56.0343 52.4731 57.47 50.3221 58.4495 47.9548C59.429 45.5875 59.9331 43.0502 59.9331 40.4878L40.4425 40.4878L20.9519 40.4878Z" fill="#100F0F"/>
            </svg>