<svg width="102" height="114" viewBox="0 0 102 114" fill="none" xmlns="http://www.w3.org/2000/svg">
<path d="M17.3736 89.9774C16.9849 89.444 17.3193 88.6898 17.9756 88.6198L39.3872 86.3363C40.0435 86.2663 40.5294 86.933 40.2619 87.5364L31.5336 107.221C31.2661 107.824 30.4457 107.912 30.057 107.379L17.3736 89.9774Z" fill="#5B5B5B"/>
<path d="M0.000141596 50.8099C0.0001415 51.9145 0.895573 52.8099 2.00014 52.8099C3.10471 52.8099 4.00014 51.9145 4.00014 50.8099L0.000141596 50.8099ZM14.6942 17.9762L13.2144 16.6309L14.6942 17.9762ZM80.0647 11.739L78.8659 13.3399L78.8659 13.3399L80.0647 11.739ZM98.7388 41.5796L96.7749 41.9579L98.7388 41.5796ZM92.4828 76.2214L94.1904 77.2627L92.4828 76.2214ZM64.5508 97.6455L65.1138 99.5646L64.5508 97.6455ZM30.3458 92.9094C29.3524 92.4265 28.1556 92.8404 27.6727 93.8338C27.1898 94.8272 27.6037 96.024 28.5971 96.5069L30.3458 92.9094ZM4.00014 50.8099C4.00014 39.1649 8.34066 27.938 16.1741 19.3216L13.2144 16.6309C4.71157 25.9836 0.000142701 38.1698 0.000141596 50.8099L4.00014 50.8099ZM16.1741 19.3216C24.0075 10.7052 34.7714 5.31793 46.3637 4.21186L45.9838 0.229938C33.4008 1.43053 21.7172 7.27813 13.2144 16.6309L16.1741 19.3216ZM46.3637 4.21186C57.956 3.10578 69.5444 6.3603 78.8659 13.3399L81.2634 10.138C71.1453 2.56198 58.5667 -0.970653 45.9838 0.229938L46.3637 4.21186ZM78.8659 13.3399C88.1875 20.3195 94.5727 30.523 96.7749 41.9579L100.703 41.2014C98.3124 28.7894 91.3815 17.714 81.2634 10.138L78.8659 13.3399ZM96.7749 41.9579C98.977 53.3927 96.8379 65.2378 90.7753 75.1802L94.1904 77.2627C100.771 66.4707 103.093 53.6134 100.703 41.2014L96.7749 41.9579ZM90.7753 75.1802C84.7126 85.1225 75.1617 92.448 63.9878 95.7264L65.1138 99.5646C77.2427 96.0061 87.6097 88.0546 94.1904 77.2627L90.7753 75.1802ZM63.9878 95.7264C52.8138 99.0047 40.819 98.0003 30.3458 92.9094L28.5971 96.5069C39.9653 102.033 52.985 103.123 65.1138 99.5646L63.9878 95.7264Z" fill="#5B5B5B"/>
</svg>
