<svg id="Layer_1" data-name="Layer 1" xmlns="http://www.w3.org/2000/svg" viewBox="0 0 1080 1080"><defs><style>.cls-1{fill:#be1e2d;}</style></defs><g id="Q0lhBc"><path class="cls-1" d="M392.92,499.07c-3.58-3.06-4.33-7.16-7.7-10.29-27.83,15.26-52.39,34.71-74.43,57.05.73,1.66,1.39,1.89,2.13,1.87,19.13-.56,33,8.89,44.32,23.22,11.65,14.8,19.37,31.78,26.77,48.91,10.19,23.57,19.13,47.7,30.56,70.74C424.92,711.44,437,731.14,454.46,747c2.66,2.41,5.28,4.93,8.64,6.51,2.76-1.52,2.41-4.38,2.92-6.7a216.36,216.36,0,0,1,56.77-106.12,304.5,304.5,0,0,1-70.57-60.06c6.87,5.65,13.68,11.38,20.63,16.94,16.83,13.46,34.33,26,53.24,36.39,3.29,1.81,3.87,4.27,4.12,7.46,2.45,31.19,4.89,62.39,7.55,93.56.29,3.33-1.56,8.25,4.07,9.29,6.42,1.17,13,2.69,18.1-3.42a27.65,27.65,0,0,0,4.24-8.15,94.31,94.31,0,0,1,28.2-39.87c4.31-3.59,6.69-7.23,5.7-12.89a10.35,10.35,0,0,1,.45-5.58c3.65-2.44,8-3.88,12.18-5.42,3.82-1.41,5.88-3.34,6.06-7.74s1.42-8.86,2.18-13.19c3.27-1.41,6.39-.72,9.4-.76a62.44,62.44,0,0,0,18.7-2.87c3.23-1.05,4.49-2.62,4-6.35a161.47,161.47,0,0,1,2.52-56.63c.41-1.89.42-4,2-5.49,2.23-.53,3.83.94,5.54,1.8,21.06,10.53,42.52,20.07,65.19,26.64a72.24,72.24,0,0,0,21.93,3.24c10.19-.27,14-5.82,10.61-15.55-3.92-11.31-11.27-20.58-18.68-29.72-9.7-11.95-20.41-23-31.23-33.93-4-4.08-9-5.9-14-8-16.12-6.67-31.49-14.64-45-25.88-1-.86-2.57-1.4-2.62-3.71l13.57,7.12a188,188,0,0,0,27.33,11.88,74.9,74.9,0,0,0,10.5,2.7c8.57,1.51,8.86,1,11.37-7a475.27,475.27,0,0,0,12.08-49,216.35,216.35,0,0,0,4.07-41.51c0-4-1.18-6.66-4.56-9.05A339.69,339.69,0,0,0,635,361.66c-7-2.38-14-4.71-21.66-7.27,8.33-1.15,15.91,1.07,23.6,1.46.16-2.25-1.47-2.65-2.55-3.43-15.32-11.23-32.66-18.54-50.11-25.6-7.54-3.06-15.24-5.73-22.69-9-3.08-1.35-5.34-.93-8.08.61-22.5,12.58-43.2,27.78-63.66,43.34l-12.69,9.66c-5.41-3-10.51-6-15.77-8.75-16.56-8.57-33.26-16.82-51.52-21.28a38.08,38.08,0,0,0-11.82-1.31c-6.58.47-9.44,4.22-8,10.61,1.15,5.2,3.69,9.81,6.59,14.21,15.1,22.93,33.13,43.4,52.6,62.65,16.36,16.17,33.64,31.3,51.52,45.75a9.4,9.4,0,0,1,2.53,2.78c-22.21-13.16-42.6-28.82-62.84-46.18C421.38,450.83,406.27,474,392.92,499.07Zm217,133a61.24,61.24,0,0,0,22.69.49c3.21-.58,4.63-2.07,4.42-5.5a107.33,107.33,0,0,1,1-19.46c.63-5.21,1.42-10.45,4.1-15.17-1.78,14.83-.28,29.47,2.22,44.14-10.71,4.88-21.46,3.38-32.63,3.46-.6,5.71-1.14,11-1.74,16.37-.24,2.09.08,4.61-2.67,5.36-4.08,1.11-8.08,2.67-13.18,3,12.57-23.19,8.9-46.61,3.73-70.17C604.64,606,607.74,618.66,609.91,632Zm-33.73-92.31,1.4-1.26,49.19,47.67c-8.61,2.63-15.95,4.09-24.21.82,9,1,9.26,1,14.2-1.43C591.35,579.72,575,566.87,576.18,539.71ZM547.49,736c9.24-14.31,18.48-27.81,15.35-45.73,4.92.22,9.55.9,13.94,4.71-8,6.62-11.49,15.78-15.37,24.68-1.66,3.81-3.18,7.68-5.54,11.13C554,733.56,551.82,735.84,547.49,736Zm42.85-51.55c-6.06-3.34-11.53-6.35-17.48-8.36s-12.05-3.07-18.94-4.32a29.12,29.12,0,0,1,9.34-.63,103.28,103.28,0,0,1,19.82,2.28C591,675.22,591,675.18,590.34,684.46Zm43.11-110.91.56.13c-.73,2.76-2,5.47-.78,8.57-2-1.33-3.58-2.67-4.14-4.83C630,575.43,631.71,574.46,633.45,573.55Z"/></g></svg>