<?xml version="1.0" encoding="utf-8"?>
<!-- Generator: Adobe Illustrator 24.2.1, SVG Export Plug-In . SVG Version: 6.00 Build 0)  -->
<svg version="1.1" id="Layer_1" xmlns="http://www.w3.org/2000/svg" xmlns:xlink="http://www.w3.org/1999/xlink" x="0px" y="0px"
	 viewBox="0 0 1080 1080" style="enable-background:new 0 0 1080 1080;" xml:space="preserve">
<style type="text/css">
	.st0{enable-background:new    ;}
	.st1{fill:#BE1E2D;}
	.st2{fill:#F7941D;}
</style>
<g class="st0">
	<path class="st1" d="M178.1,503.4h-52.7v-21.8h70.9L178.1,503.4z M132.6,507.1h14.6v71.7l-7,7h-14.5v-71.8L132.6,507.1z
		 M211.3,481.6v21.8l-34.8,41.2h-25.6v-21.8h15.7l34.6-41.2H211.3z"/>
	<path class="st1" d="M271.8,503.4h-52.7v-21.8H290L271.8,503.4z M226.3,507.1h14.6v71.7l-7,7h-14.5v-71.8L226.3,507.1z
		 M309.2,572.7v13.1H287l-18.1-21.5h4.8l-16.5-19.7h-12.7v-21.8h15.7l34.6-41.2h10v21.8l-27.1,32.1L309.2,572.7z"/>
	<path class="st1" d="M396.3,488.6v14.8h-43.8L336,523v37.3h-14.6l-6.9-7v-38.5l27.8-33.3h47.1L396.3,488.6z M389.4,507.3l6.9,7
		v38.4l-28,33.3h-47l-6.9-6.9v-14.9h43.8l16.5-19.5v-37.3H389.4z"/>
</g>
<g class="st0">
	<path class="st1" d="M410.3,481.6h24.2v21.8h-30.2v-14.5L410.3,481.6z M489.7,481.6v8.3l-11.4,13.5h-18.9c0,23.2,0,46.3,0,69.4
		L438,585.7c0-34.7,0-69.4,0-104.1H489.7z"/>
</g>
<g class="st0">
	<path class="st1" d="M563.9,488.6v14.8h-43.8L503.6,523v37.3h-14.6l-6.9-7v-38.5l27.8-33.3H557L563.9,488.6z M557,507.3l6.9,7v38.4
		l-28,33.3h-47l-6.9-6.9v-14.9h43.8l16.5-19.5v-37.3H557z"/>
	<path class="st1" d="M654.9,481.6v97.8l-5.4,6.3h-28.2l12.1-14.5v-38l-24,28.4h4.8L594,585.7c-7.4,0-14.8,0-22.2,0v-13.1l76.5-91.1
		H654.9z M577.9,559.9l-6.1-6.1v-65.2l6.9-7h28.5v14.9l-7,6.9h-6.6v37.9L577.9,559.9z"/>
</g>
<g class="st0">
	<path class="st2" d="M752.9,572.7v13.1h-22.2l-18.1-21.5h4.8l-16.5-19.7h-22.3l-15.7-18.6v-25.6l15.7-18.7h42.8l-17.9,21.8
		c-8.2,0-10.7,0-18.7,0c0,6.5,0,12.9,0,19.4h26.3L752.9,572.7z M707.7,564l18.2,21.8c-18.7,0-37.5,0-56.1,0l-7-7c0-9.5,0-19,0-28.5
		c9.4,0,18.5,0,27.8,0l-6.3,7.4c0,2.1,0,4.2,0,6.3h16.5H707.7z M708,503.4l18.1-21.8H739l7,7c0,11.3,0,17.2,0,28.6
		c-9.4,0-18.5,0-27.8,0l6.3-7.5c0-4,0-2.4,0-6.3H708z"/>
</g>
<g class="st0">
	<path class="st2" d="M813.4,503.4h-52.7v-21.8h70.9L813.4,503.4z M767.9,507.1h14.6v71.7l-7,7h-14.5v-71.8L767.9,507.1z
		 M846.6,481.6v21.8l-34.8,41.2h-25.6v-21.8h15.7l34.6-41.2H846.6z"/>
	<path class="st2" d="M958.5,480.2v10.2l-41.2,34.6v10.4l-4.2,4.2l-58.6-49.2v-10.2h21.6l30.4,25.5l30.4-25.5H958.5z M895.7,529.6
		l21.6,18.2v23.4l-21.6,13.1V529.6z"/>
</g>
</svg>
